<svg xmlns="http://www.w3.org/2000/svg" viewBox="0 0 595.28 595.28"><path d="M187.44 288.08c-.48-3.35-1.02-6.73-1.61-10.14-.75-3.18-1.12-4.78-1.87-7.96-.44-2.4-.97-4.78-1.58-7.11a93.94 93.94 0 0 0-2.21-7.19c-.8-2.27-1.59-4.54-2.39-6.81-.8-2.27-1.77-4.53-2.95-6.6-.99-1.74-1.98-3.54-2.84-5.36-.86-1.81-1.82-3.6-2.87-5.35-.12-.34-.19-.51-.31-.85.11-.25.45-.49 1-.69 1.4-.74 2.8-1.48 4.2-2.2 1.4-.73 2.78-1.54 4.12-2.46 1.9-1.11 3.7-2.22 5.39-3.34 1.69-1.12 3.38-2.29 5.06-3.49 3.91-2.6 7.09-5.32 9.51-8.2.26-.5.57-.82.95-.94-.03-2.73-1.2-4.31-3.55-4.72-2.34-.41-4.15-.61-5.42-.62-.13.26-.24.4-.33.43-.1.03-.21.18-.34.43-1.4 1.52-2.9 2.87-4.51 4.05-1.61 1.18-3.16 2.35-4.66 3.51-1 .77-2 1.39-2.99 1.85-1 .46-1.99 1.08-2.98 1.86-1.74 1.06-3.46 2-5.15 2.84-1.7.84-3.44 1.72-5.22 2.6-.44.17-.67.25-1.11.42-1.23-1.03-2.34-2-3.32-2.91-.98-.91-2.02-1.69-3.13-2.34-3.41-2.76-7.32-3.92-11.69-3.44-1.09.01-2.21.2-3.36.56-1.15.37-2.29.79-3.41 1.25-3.8 1.38-6.52 4.29-8.13 8.72-.79 2.75-.74 5.15.12 7.17 1.07 3.03 3.3 5.22 6.64 6.6 3.6 1.5 7.55 1.64 11.92.48 3.7-1.15 5.56-1.71 9.28-2.81.72-.29 1.2-.15 1.41.41 1 1.54 1.92 3.12 2.73 4.74s1.7 3.27 2.44 4.86c1.71 3.69 3.08 7.73 4.29 11.56.69 1.88 1.33 3.73 1.89 5.55.57 1.82 1.1 3.71 1.62 5.66.1.82.43 1.99.97 3.49.2 1.64.51 3.14.9 4.49s.77 2.82 1.15 4.39c.2 1.65.48 3.09.84 4.35.36 1.26.64 2.71.85 4.35.41 2.21.69 4.31.83 6.29.14 1.99.34 4.12.59 6.39.46 3.91.63 7.51.51 10.8-.12.7-.27 1.46-.43 2.28-.16.82-.42 1.52-.77 2.1-.65 1.78-1.7 2.44-3.16 1.98-1.01-.22-2.04-.76-3.1-1.61-1.69-1.02-3.42-2.66-5.23-4.92-1.2-1.66-2.4-3.2-3.62-4.63-1.22-1.43-2.43-2.88-3.55-4.33-1.22-1.6-2.37-3.21-3.44-4.7-1.07-1.49-2.23-3.05-3.47-4.68-.54-.85-1.08-1.71-1.62-2.56-.54-.85-1.08-1.7-1.62-2.56-.94-1.33-1.85-2.72-2.75-4.18-.9-1.46-1.85-3.03-2.88-4.46-.81-1.13-1.65-2.27-2.32-3.39-.67-1.12-1.4-2.38-2.19-3.78-1.12-1.68-2.19-3.4-3.23-5.12-1.04-1.72-2.16-3.51-3.38-5.38a28.01 28.01 0 0 1-2.55-4.11c-.72-1.42-1.58-2.8-2.57-4.1-.32-.73-.64-1.36-.97-1.87-.33-.51-.61-1.04-.85-1.59-1.33-2.16-1.99-3.25-3.33-5.4-.32-.73-1.05-1.17-2.18-1.3-1.92.02-3.94.13-5.53.63-2.95.93-6.08 3.5-8.9 6.7-1.68 1.51-3.04 3.43-4.08 5.76-1.04 1.88-1.51 4.04-1.42 6.47.35 1.62.54 3.22.55 4.78.01 1.57.07 3.13.17 4.65.3 4.13.44 8.24.43 12.31-.01 4.08-.12 8.22-.33 12.42.03.9-.05 1.79-.23 2.69-.18.89-.25 1.79-.22 2.68-.1.05-.15.08-.24.13-.21-.43-.32-.64-.53-1.07-.63-1.7-1.24-3.36-1.83-4.96-.59-1.61-1.15-3.33-1.59-5.1-.39-1.58-.8-3.09-1.25-4.43-.46-1.34-.91-2.68-1.37-4.02-.65-2.15-1.29-4.18-1.93-6.11-.64-1.92-1.34-3.99-1.93-6.11-.49-1.75-1.02-3.54-1.66-5.24-.64-1.7-1.15-3.35-1.52-4.97-.36-.71-.63-1.36-.82-1.94-.18-.58-.41-1.14-.68-1.68-.55-1.52-1.08-2.88-1.58-4.09-.5-1.2-1.03-2.57-1.58-4.09-.91-1.78-2.2-2.34-3.87-1.66-.97.3-1.92.65-2.83 1.04-.92.39-1.86.75-2.83 1.05a34.677 34.677 0 0 0-11.44 6.52c-.77.68-1.44 1.42-2.01 2.22-.58.8-1.2 1.63-1.86 2.49-.56 1.03-.61 2.13-.22 3.27.33.96.66 1.99 1.02 3.05.37 1.06.71 2.08 1.02 3.05.44 1.6 1.01 3.12 1.69 4.57.69 1.45 1.26 2.97 1.7 4.56.8 1.85 1.57 3.65 2.32 5.41.75 1.76 1.53 3.57 2.32 5.41.71 1.66 1.5 3.23 2.39 4.67.89 1.44 1.76 2.95 2.62 4.52.98 2.2 2.18 4.32 3.59 6.37 1.42 2.05 2.84 4.03 4.28 5.95 2.07 2.71 4.2 4.78 6.39 6.25 4.43 3.38 8.89 4.2 13.47 2.49 3.78-1.7 6.46-4.22 8.05-7.6.68-1.5 1.2-3.04 1.57-4.6.36-1.56.65-3.18.86-4.88.66-3.74 1.07-7.51 1.23-11.31.16-3.8.2-7.58.1-11.35-.01-.89.03-1.7.12-2.42.17.36.32.57.44.62.12.05.23.16.31.34.84 1.37 1.6 2.66 2.27 3.89.67 1.23 1.38 2.44 2.13 3.62 1 1.28 1.87 2.63 2.61 4.04.75 1.41 1.64 2.77 2.6 4.05 1.07 1.43 2.08 2.92 3.01 4.35.94 1.43 1.89 2.79 2.87 4.08 1.3 1.58 2.53 3.14 3.69 4.67 1.16 1.53 2.39 3.1 3.66 4.69 1.91 2.17 3.7 4.18 5.35 6.03 1.65 1.85 3.46 3.8 5.4 5.68 1.82 1.76 3.76 3.38 5.69 4.89 1.92 1.51 4.11 2.78 6.57 3.83 1.76.71 3.43 1.31 4.99 1.8 1.57.48 3.31.62 5.24.41 1.53-.29 2.29-.44 3.83-.72 1.46.01 2.82-.48 4.09-1.46 2.45-1.71 4.99-3.91 7.15-6.6 2.1-2.62 3.63-6.23 4.61-10.27.6-3.03.94-6.07 1.01-9.1.07-3.03.09-6.19-.1-9.28-.19-3.45-.62-6.95-1.1-10.3zm-40.62-60.35c-.99.2-2.36.22-4.13.09-.44-.03-1.18-.26-2.21-.7-.78-.32-.83-.96-.13-1.9.18-.2.26-.31.44-.51 1.95-1.03 3.86-1.5 5.72-1.4 1.86.1 3.66 1 5.38 2.69.04.11.07.17.11.28-1.41.78-3.13 1.26-5.18 1.45zm247.97-17.76c-2-2.07-2.87-4.46-2.58-7.19.3-2.89 1.65-5.09 4.09-6.6 2.43-1.5 5.19-2.07 8.24-1.7 3.05.37 5.63 1.63 7.71 3.76s2.74 4.46 2.04 6.99c0 2.62-1.24 4.76-3.69 6.44-2.45 1.68-5.23 2.32-8.37 1.94-2.97-.37-5.44-1.58-7.44-3.64zm123.43 72.48c-.27-.25-.71-.23-1.31.05-1.49 1.44-2.92 2.86-4.29 4.26a80.2 80.2 0 0 1-4.48 4.21c-2.58 2.38-5.05 4.76-7.4 7.15-2.36 2.39-4.78 4.8-7.26 7.24-.85.7-1.65 1.38-2.4 2.03-.75.66-1.55 1.33-2.39 2.04-.04.15-.25.33-.63.53-.17-1.16-.21-2.21-.12-3.13.09-.92.17-1.85.26-2.78.61-2.84 1.6-5.89 2.99-9.14.59-.94 1.06-1.91 1.43-2.92.36-1 .86-1.98 1.44-2.92.64-1.05 1.28-2.21 1.95-3.36.66-1.15 1.31-2.27 1.96-3.36 1.12-1.58 2.22-3.16 3.28-4.75 1.06-1.59 2.14-3.1 3.24-4.52.86-1.17 1.71-2.31 2.56-3.41.85-1.09 1.76-2.13 2.76-3.1.83-1.02 1.56-1.99 2.2-2.91.63-.92 1.04-1.99 1.24-3.21.53-1.75.41-3.38-.38-4.91-.91-1.72-2.17-3.21-3.76-4.49-1.6-1.28-3.2-2.54-4.81-3.8-.75-.53-1.55-1.05-2.39-1.52a29 29 0 0 1-2.4-1.51c-.75-.53-1.37-1.06-1.85-1.59s-1.02-1.03-1.61-1.51c-.17-.05-.23-.14-.19-.29-.46-.7-.69-1.04-1.15-1.74 1.88-2.97 3.31-6.37 4.27-10.22.96-3.85.76-7.31-.64-10.37-1.35-2.57-3.43-4.23-6.22-4.95-.35-.09-.79-.16-1.34-.22-.54-.06-.99-.14-1.34-.22-4.59-.22-7.6 1.5-9.02 5.08-.92 2.29-1.05 5.13-.42 8.5.63 3.38 1.9 7.03 3.78 10.97.18.68.34 1.11.48 1.3-.02.09-.03.13-.06.22.29.55.44.82.72 1.37-1.75 2.7-3.45 5.26-5.1 7.68-1.38 2.01-2.77 3.99-4.19 5.92-1.42 1.93-2.67 3.39-3.76 4.38-5.28 4.8-8.25 11.78-14.22 15.85-.78.53-1.64 1.08-2.59 1.65l-.78.18c-.18.04-.45.18-.83.41.25-.42.42-.84.52-1.29.25-.42.47-1.07.66-1.96.38-1.01.71-1.99 1-2.95.28-.95.54-1.95.76-3 .45-2.15.68-3.23 1.14-5.38.15-1.53.29-2.99.42-4.37.12-1.38.18-2.85.17-4.42.05-2.65-.29-5.14-1.01-7.48-.77-2.97-2.16-5.53-4.18-7.66-2.02-2.13-4.4-3.46-7.1-3.98-2.88-.55-5.52-.03-7.85 1.33-2.44 1.43-4.46 3.63-5.83 6.65-.49.84-.77 1.5-.84 1.95-.33-.06-.57-.17-.71-.35-.31-.21-.63-.38-.95-.51-.32-.13-.64-.3-.94-.51-2.6-.9-5.01-1.07-7.09-.69-2.39.44-4.2 1.21-5.23 2.45-.59.53-1.08 1.04-1.49 1.52-.41.48-.83 1.08-1.27 1.78-.44.71-.88 1.46-1.33 2.24-.45.79-.89 1.61-1.35 2.47-4.03 7.62-8.75 15.31-13.91 22.2-1.47 1.96-2.98 3.88-4.38 5.71-1.4 1.84-2.84 3.75-4.3 5.74-.19.29-.37.54-.55.75-.18.21-.44.45-.78.72-.08-.1-.13-.15-.21-.25.02-.15-.1-.55-.35-1.19-.28-1.88-.33-3.8-.13-5.78.1-2.6.54-5.4 1.33-8.39.44-1.18.8-2.26 1.06-3.23.26-.97.62-2.05 1.07-3.23.42-.88.76-1.8 1.03-2.77s.61-1.89 1.03-2.77c1.26-3.46 1.9-5.18 3.19-8.64 1.68-4.24 2.53-6.35 4.25-10.58 1.69-3.95 2.54-5.93 4.28-9.87.53-1.47.67-2.61.42-3.41.07-.6-.02-1.23-.29-1.88-.42-2.21-1.9-3.74-4.43-4.58-2.53-.84-4.73-.73-6.59.29-3.15 1.66-5.52 3.73-7.14 6.18-1.96 2.42-3.55 4.92-4.8 7.5-1.25 2.57-2.4 5.19-3.47 7.86-.41.88-.74 1.78-.98 2.68-1.61 6.01-5.34 13.29-8.82 18.39-1.99 2.92-3.87 5.82-5.65 8.69-1.78 2.87-3.61 5.79-5.5 8.74-.68.88-1.31 1.73-1.9 2.53-.59.81-1.22 1.66-1.89 2.54-.01.15-.17.38-.5.67-.42-1.09-.69-2.11-.8-3.03-.12-.92-.24-1.85-.35-2.77-.03-2.91.27-6.11.9-9.6.37-1.05.61-2.11.75-3.18.13-1.06.4-2.14.75-3.18.39-1.17.76-2.45 1.15-3.73.39-1.28.77-2.52 1.16-3.73.74-1.8 1.46-3.6 2.13-5.4.67-1.79 1.39-3.52 2.15-5.16.58-1.34 1.15-2.65 1.73-3.92.58-1.26 1.24-2.49 1.99-3.67.58-1.19 1.07-2.3 1.48-3.35.41-1.04.56-2.18.47-3.42.12-1.83-.38-3.4-1.49-4.7-1.28-1.46-2.85-2.63-4.69-3.5a943.8 943.8 0 0 0-5.56-2.59c-.85-.35-1.75-.66-2.68-.93-.94-.27-1.84-.58-2.69-.92-.85-.34-1.58-.72-2.17-1.12-.59-.4-1.23-.77-1.92-1.1-.18-.01-.26-.08-.25-.24-.61-.57-.91-.86-1.52-1.43 1.15-3.33 1.75-6.98 1.79-10.96.04-3.98-.96-7.3-3.04-9.96-1.92-2.19-4.33-3.33-7.21-3.38-.36-.01-.81.03-1.35.09-.54.07-.99.1-1.35.09-4.52.86-7.04 3.23-7.59 7.05-.36 2.45.18 5.24 1.57 8.38 1.39 3.15 3.48 6.41 6.21 9.81.34.62.59 1.01.76 1.16v.23c.41.47.61.7 1.02 1.16-1.09 3.04-2.16 5.93-3.21 8.67-.88 2.28-1.79 4.53-2.74 6.74-.94 2.21-1.84 3.93-2.68 5.14-5.15 10.3-10.46 20.52-15.66 30.77-1.53 3.02-3.12 6.08-4.76 9.19-.61.94-1.17 1.84-1.69 2.69-.52.86-1.08 1.76-1.67 2.7.01.15-.14.39-.44.71-.51-1.05-.86-2.04-1.05-2.95-.19-.91-.39-1.82-.58-2.73-.27-2.9-.24-6.11.11-9.65.28-1.08.44-2.16.48-3.23.04-1.07.23-2.16.49-3.23.3-1.2.55-2.51.84-3.82.28-1.31.56-2.58.85-3.82.59-1.86 1.15-3.71 1.67-5.56a74.06 74.06 0 0 1 1.71-5.33c.46-1.39.92-2.74 1.39-4.05.47-1.31 1.02-2.58 1.67-3.83.48-1.23.87-2.39 1.19-3.47.32-1.07.38-2.22.18-3.45-.04-1.83-.67-3.35-1.89-4.55-1.4-1.35-3.06-2.38-4.97-3.08a666.8 666.8 0 0 0-5.76-2.1 25.7 25.7 0 0 0-2.75-.69c-.96-.19-1.88-.41-2.76-.68-.88-.27-1.63-.58-2.25-.92-.62-.35-1.3-.66-2-.93-.18.01-.26-.06-.27-.22-.65-.52-.98-.77-1.64-1.29.85-3.41 1.14-7.11.83-11.07-.31-3.97-1.59-7.19-3.9-9.66-2.1-2.02-4.61-2.94-7.48-2.74-.36.02-.81.1-1.34.21-.53.12-.98.18-1.34.21-4.43 1.25-6.73 3.83-6.94 7.68-.14 2.47.63 5.21 2.29 8.21 1.66 3.01 4.02 6.08 7.04 9.24.39.59.67.95.86 1.09.01.09.01.14.02.23l1.12 1.07c-.82 3.13-1.64 6.1-2.45 8.92-.69 2.35-1.4 4.67-2.15 6.95-.75 2.28-1.5 4.07-2.23 5.36-.7 1.75-1.38 3.53-2.06 5.36-3.31 8.89-6.64 18.2-10.18 27.15-1.22 3.67-2.54 6.97-3.95 9.91-.12.32-.25.64-.36.97-.12.33-.32.66-.6.99-.97 1.19-2.1 1.64-3.39 1.34-1.3-.3-2.19-1.11-2.67-2.44-.09-.76-.18-1.44-.25-2.05-.07-.61-.08-1.3-.02-2.08.01-1.23.02-2.43.04-3.59.02-1.16.11-2.36.28-3.62.03-1.08.07-2.13.11-3.13.04-1 .15-2.06.35-3.16.12-1.71.29-3.39.5-5.03.21-1.64.47-3.33.76-5.06.22-.95.48-1.94.77-2.98.29-1.04.55-2.03.78-2.98 1.01-4.27 1.53-6.41 2.59-10.68.23-.95.51-1.94.83-2.98.31-1.03.62-2.04.83-2.97.25-1.07.42-2.12.58-3.06.16-.94.35-1.96.58-3.06.18-3.25-1.19-5.73-4.16-7.4-1.65-.74-3.37-1.24-5.15-1.5-2.85-.43-5.11.54-6.73 2.9-.46.52-.75.95-.88 1.27-1.24 1.24-2.68 1.51-4.34.81-.39-.26-.72-.44-.99-.56-.28-.11-.61-.3-1-.56-4.52-2.3-9.45-3.43-14.75-3.36-3.01.02-5.92.66-8.71 1.93-3.77 1.75-7.18 4.4-10.2 7.93-4.23 5.48-6.93 11.04-8.19 16.62-.42 2.12-.68 4.17-.78 6.14-.1 1.97.16 3.99.76 6.05.19.9.42 1.83.71 2.78.28.95.63 1.87.95 2.73.43 1.13.93 2.27 1.56 3.3.63 1.04 1.39 2.09 2.27 3.15.48.68 1.06 1.34 1.77 1.97.71.64 1.51 1.17 2.42 1.61 1.48.79 2.98 1.35 4.51 1.67 4.67 1.27 8.62.3 12-2.93 1.12-1.13 2.15-2.31 3.09-3.56.94-1.24 1.88-2.56 2.82-3.96.93-1.39 1.85-2.66 2.75-3.81.9-1.15 1.76-2.32 2.57-3.53.14-.18.25-.27.33-.28.08-.01.19-.11.33-.28.02.15.08.26.17.32.09.06.15.17.17.32.02 1.24.07 2.43.16 3.57.09 1.14.14 2.34.16 3.57.17 4.46.56 8.66 1.14 12.59.32 2.12 1.2 4.3 2.65 6.55 1.89 3.12 4.21 5.56 6.96 7.33 1.38.89 2.76 1.58 4.15 2.09 1.39.51 2.95.73 4.65.66 1.85-.08 3.52-.52 4.99-1.3 1.47-.79 2.73-2.08 3.79-3.9 1.29-2.6 2.48-5.23 3.56-7.88 3.57-8.74 6.18-17.98 9.48-26.9 3.59-9.68 7.28-19.34 11.87-28.6a54.6 54.6 0 0 1 5.14 2.23c1.67.83 3.29 1.59 4.85 2.28-.31.78-.69 1.53-1.17 2.24-.47.71-.86 1.46-1.16 2.24-.45 1.1-.94 2.2-1.47 3.29-.53 1.1-1.01 2.28-1.45 3.53-.59 1.41-1.09 2.82-1.51 4.22-.42 1.4-.83 2.81-1.24 4.21a43.26 43.26 0 0 0-1.56 6.77c-.34 2.32-.6 4.64-.77 6.95-.28 3.09-.33 6.08-.13 8.98.12 6.74 1.42 12.93 3.78 18.61 1.1 2.84 2.77 5.11 5.01 6.83 3.19 2.43 6.53 2.65 10.13.68 1.65-.83 3.03-1.83 4.15-3.01 1.12-1.18 2.12-2.47 3.01-3.87.74-1.25 1.33-2.44 1.77-3.6.44-1.16.96-2.35 1.56-3.59.59-1.54 1.19-3.04 1.8-4.51.6-1.46 1.21-3.04 1.82-4.73 1.96-5.42 21.95-51.74 23.97-50.78 1.69.81 3.34 1.7 4.93 2.67 1.59.97 3.14 1.87 4.64 2.69-.37.75-.82 1.46-1.35 2.13-.53.67-.98 1.38-1.35 2.13-.54 1.05-1.13 2.11-1.75 3.15-.62 1.05-1.2 2.18-1.74 3.39-.71 1.36-1.33 2.71-1.86 4.08-.54 1.36-1.07 2.72-1.59 4.09-.88 2.12-1.58 4.32-2.12 6.61-.54 2.28-.99 4.57-1.35 6.85-.54 3.05-.83 6.03-.88 8.93-.44 6.73.34 13.01 2.24 18.87.87 2.93 2.35 5.34 4.44 7.24 2.99 2.69 6.3 3.21 10.04 1.55 1.71-.68 3.17-1.56 4.38-2.64s2.31-2.28 3.31-3.6c.84-1.18 1.53-2.32 2.06-3.43.53-1.11 1.15-2.26 1.85-3.44.72-1.48 1.44-2.93 2.16-4.33.72-1.4 1.45-2.92 2.2-4.55.93-1.92 1.9-3.8 2.91-5.64.05-.09.09-.17.14-.25-.08 1.07-.16 2.12-.23 3.12-.11 1.53-.16 3.14-.11 4.82.04 1.53.17 3.01.38 4.4.21 1.4.41 2.88.61 4.42.35 1.56.79 3.02 1.3 4.36.52 1.34 1.34 2.68 2.47 4.01 2.79 3.62 6.35 4.65 10.81 3.14 3.35-1.17 6.11-3.16 8.3-5.97.72-.84 1.33-1.72 1.83-2.66.5-.94 1.04-1.91 1.63-2.91.78-1.29 1.53-2.61 2.25-3.99.72-1.37 1.56-2.76 2.54-4.18.93-1.68 1.86-3.29 2.79-4.85-.08 2.74-.3 6.15.21 9.42.15 2.49.71 4.88 1.66 7.18.89 2.76 2.2 5.18 3.93 7.3 2.14 2.49 4.91 4.16 8.35 5.04.89.3 1.83.46 2.83.48 1 .02 2.02-.02 2.94-.18.78-.14 1.6-.3 2.4-.38.79-.09 1.61-.29 2.44-.6 3.28-.94 6.28-2.62 8.92-5.05 2.48-2.28 4.58-4.52 6.29-6.66 1.09-1.49 2.1-2.91 3.02-4.28.92-1.36 1.78-2.82 2.59-4.37.31-.71.88-1.14 1.73-1.27.31.07.55.08.73.04.17-.04.41-.03.73.04 1-.09 1.95-.35 2.87-.77.91-.42 1.84-.92 2.79-1.48 12.67-7.56 19.39-22.75 29.71-33.23 1.46 1.18 2.86 2.42 4.18 3.73 1.33 1.31 2.62 2.54 3.89 3.69-.53.65-1.13 1.23-1.8 1.75-.67.52-1.27 1.11-1.79 1.76-.77.9-1.57 1.78-2.41 2.66-.84.88-1.66 1.84-2.45 2.89-.99 1.15-1.9 2.33-2.73 3.53-.83 1.2-1.65 2.4-2.47 3.6a43.4 43.4 0 0 0-3.54 5.93 94.07 94.07 0 0 0-2.84 6.35c-1.2 2.84-2.14 5.67-2.83 8.49-1.9 6.44-2.52 12.74-1.95 18.88.21 3.05 1.13 5.74 2.75 8.07 2.32 3.31 5.43 4.58 9.42 3.83 1.81-.27 3.42-.79 4.82-1.56 1.41-.77 2.74-1.69 3.99-2.74 1.07-.95 1.98-1.9 2.75-2.87.76-.96 1.6-1.93 2.54-2.92 1.02-1.28 2.03-2.52 3.04-3.72 1.01-1.2 2.05-2.51 3.14-3.92 1.32-1.66 2.68-3.26 4.07-4.82 1.39-1.55 2.74-3.08 4.05-4.58.62-.92 1.3-1.74 2.04-2.46s1.39-1.47 1.98-2.24c1.41-1.78 2.79-3.41 4.13-4.89.45-.33.51-.79.19-1.38-.3-.72-1.09-1.47-2.41-2.23zm-285.47-47.07c-.24.81-.51 1.58-.84 2.32-.33.74-.69 1.53-1.08 2.35-1.48 2.84-2.97 5.73-4.48 8.66-1.5 2.94-3.21 5.8-5.11 8.58a66.408 66.408 0 0 1-3.27 5.31c-1.14 1.67-2.31 3.31-3.52 4.92-.27.36-.84.93-1.69 1.7-.56.57-1.28.73-2.14.51-.86-.23-1.52-.61-1.94-1.15-.3-.72-.54-1.38-.73-1.97-.19-.58-.2-1.28-.01-2.1.02-.78 0-1.63-.09-2.55a8.19 8.19 0 0 1 .16-2.59c.24-2.38.71-4.71 1.4-7.01.7-2.3 1.54-4.55 2.53-6.74 2.85-5.31 6.42-9.86 10.71-13.62 1.07-.94 2.12-1.48 3.14-1.64 1.4.1 2.65.3 3.74.61 1.08.31 2.05 1.02 2.9 2.14.41.41.51 1.17.32 2.27zm45.58-23.11c-.96-1.16-1.98-2.66-3.09-4.5-1.1-1.84-1.68-3.06-1.73-3.67-.47-1.5-.36-2.51.32-3.01.33-.33.59-.5.77-.51.71-.05 1.36.21 1.93.79.38.28.93 1.24 1.66 2.88.74 1.62.77 4.29.14 8.02zm57.83-1.3c-.85-1.24-1.75-2.83-2.69-4.76-.94-1.93-1.41-3.2-1.4-3.81-.33-1.53-.14-2.53.58-2.98.36-.3.63-.45.81-.44.71.01 1.33.33 1.86.95.35.32.82 1.32 1.41 3.01.58 1.71.38 4.38-.57 8.03zm106.32 69.89c-.55 1.14-1.2 2.25-1.98 3.34-.78 1.09-1.58 2.23-2.42 3.26-.77.93-1.63 1.82-2.42 2.68-.8.86-1.66 1.66-2.59 2.42-2.25 1.91-4.61 3.18-7.08 3.83-.64.04-1.24.09-1.8.15s-1.15.03-1.76-.07c-1.53-.26-2.53-.97-2.98-2.13-.45-1.16-.68-2.56-.8-4.08-.09-1.23-.12-2.58.01-3.95s.3-2.74.51-4.1c.32-1.03.55-2 .69-2.91.14-.91.37-1.87.69-2.9.32-1.03.61-2.07.85-3.11s.61-2.07 1.1-3.07c1-2.62 1.51-3.93 2.52-6.55.52-1.15 1.02-2.23 1.52-3.23.5-.99 1-2.07 1.53-3.23.28-.73.88-1.79 1.79-3.18.02-.15.13-.29.32-.41-.03.15.03.32.17.5.12 1.26.23 2.41.31 3.43.08 1.02.27 2.11.58 3.24.99 4.99 2.8 9.35 5.41 13.1.79 1.08 1.66 2.15 2.62 3.19.95 1.04 2 1.99 3.15 2.84.25.36.27.67.06.94zm7.85-27.98c-.08.84-.12 1.65-.1 2.44-.09 2.17-.33 4.22-.72 6.17-.39 1.95-.88 3.95-1.45 6.02-.12.6-.26 1.12-.43 1.55-.17.43-.31.95-.43 1.55l-.24-.05c-.55-.58-1.19-1.57-1.92-2.96-1.7-3.3-2.81-7.17-3.34-11.63-.16-.96-.32-1.96-.46-3-.15-1.04-.17-2.13-.18-3.18 0-.76-.01-1.56.04-2.32.06-.76.32-1.49.79-2.18.14-.75.5-1.3 1.08-1.66.28-.57 1-.74 2.17-.52.83.16 1.46.48 1.89.96.43.47.85.98 1.26 1.53.55.73.96 1.52 1.22 2.35.26.83.49 1.66.67 2.47.18.79.23 1.62.15 2.46zm39.39-20.56c-.54-1.4-1.04-3.15-1.51-5.24-.47-2.09-.63-3.43-.48-4.02.03-1.57.45-2.49 1.25-2.75.42-.2.72-.29.89-.24.69.18 1.22.63 1.58 1.35.27.39.49 1.47.67 3.25.18 1.78-.63 4.33-2.4 7.65zm48.94 67.01c-.26.72-.74 1.59-1.45 2.62.5-.46.79-.76.84-.91l-.15.43a35.683 35.683 0 0 1-3.72 4.71 26.36 26.36 0 0 1-4.65 3.89c-1.58 1.08-2.37 1.62-3.94 2.7-.89.65-1.66.67-2.3.15-.75-.61-1.22-1.32-1.28-2.15-.06-.83.33-1.5 1.17-2.01 2.19-1.46 3.29-2.18 5.51-3.61.6-.27.82-.67.67-1.22-1.96-.71-3.36-1.97-4.19-3.79-.83-1.82-.92-3.75-.25-5.77.67-2.02 1.88-3.46 3.63-4.3 1.75-.84 3.64-.9 5.65-.17 2 .72 3.44 1.98 4.28 3.76.84 1.76.9 3.66.18 5.67zm-88.92-151.84l-29.49-65.34 17.11-39.62 35.2 24.32 5.09 72.42-27.91 8.22zm-337.61-8.23l5.09-72.42 35.2-24.32 17.11 39.62-29.49 65.34-27.91-8.22z" fill="#7ac3ec"/><path d="M179.53 165.74c-2.51 0-4.57-2.03-4.59-4.54a4.584 4.584 0 0 1 4.54-4.64l12.43-.16c3.84-.05 7.65-.11 12.81-.16h.05c2.52 0 4.57 2.03 4.59 4.55.03 2.54-2.01 4.61-4.55 4.64-5.15.05-8.95.11-12.78.16l-12.46.16c-.01-.01-.02-.01-.04-.01zm53.87-67.91a4.6 4.6 0 0 0-.37-6.49L210.1 70.9a4.6 4.6 0 0 0-6.49.37 4.6 4.6 0 0 0 .37 6.49l22.93 20.44a4.59 4.59 0 0 0 3.06 1.16c1.26.01 2.52-.51 3.43-1.53zm186.34 63.37a4.584 4.584 0 0 0-4.54-4.64l-12.71-.16c-3.93-.05-7.85-.11-13.11-.16-2.51.11-4.61 2.01-4.64 4.55-.03 2.54 2.01 4.61 4.55 4.64 5.25.05 9.15.11 13.07.16l12.74.16h.05c2.51-.01 4.57-2.03 4.59-4.55zm-50.39-63.4l22.47-20.04a4.6 4.6 0 0 0 .37-6.49 4.6 4.6 0 0 0-6.49-.37l-22.47 20.04a4.6 4.6 0 0 0 3.06 8.03c1.1-.01 2.19-.39 3.06-1.17zM299.6 84.33c2.53-.11 4.5-2.26 4.38-4.8l-1.47-32.63c-.11-2.54-2.38-4.47-4.8-4.38-2.53.11-4.5 2.26-4.38 4.8l1.47 32.63a4.59 4.59 0 0 0 4.59 4.39c.07 0 .14 0 .21-.01zm-95.56 42.27c1.09-2.29.12-5.03-2.17-6.12l-10.55-5.02a4.587 4.587 0 0 0-6.12 2.18 4.595 4.595 0 0 0 2.18 6.12l10.55 5.02c.64.3 1.31.45 1.97.45a4.61 4.61 0 0 0 4.14-2.63zm58.34-48.13a4.593 4.593 0 0 0 2.57-5.97l-4.48-11.27a4.586 4.586 0 0 0-5.97-2.57 4.593 4.593 0 0 0-2.57 5.97l4.48 11.27a4.6 4.6 0 0 0 4.27 2.9c.57 0 1.14-.11 1.7-.33zm78.87-3.3l3.28-14.66a4.606 4.606 0 0 0-3.48-5.49c-2.47-.53-4.93 1.01-5.49 3.48l-3.28 14.66a4.591 4.591 0 0 0 4.49 5.6c2.11 0 4.01-1.45 4.48-3.59zm54.93 51.95l8.73-4.31a4.587 4.587 0 0 0 2.08-6.15 4.584 4.584 0 0 0-6.15-2.08l-8.73 4.31a4.587 4.587 0 0 0-2.08 6.15c.8 1.62 2.43 2.56 4.12 2.56.68-.01 1.38-.16 2.03-.48zm-139.52 17.42c-7.92-3.69-10.36.76-5.04-5.49.61-.79.91-1.18 1.53-1.97 3.99-5.71 8.33-13.83 7.57-20.38-.02-.26-.04-.39-.06-.64-.53-3.98-1.26-6.66-5.3-9.42-7.52-5.06-10.02-3.4-18.66-1.97-5.76.96-10.9-.65-9.95 5.09.72 4.34.97 7.96 1.35 12.23.59 5.98.9 8.97 1.52 14.95.59 5.41 1.52 10.89 2.15 16.43l1.35 7.91c.65 2.91.76 6.33 1.4 9.08.97 4.14 1.9 7.83 2.47 11.93.31 2.24 0 4.97 2.31 6.07 3.4 1.61 4.76-.39 5.8-3.01 5.32-.68 8.38.15 13.31-2.92 3.84-2.58 3.54-4.23 5.54-7.51 2.49-4.23 3.05-8.83 2.91-13.45-.18-6.4-3.11-13.68-10.2-16.93zm2.64 16.25c.39 4.43-1.55 13.36-6.02 15.92-.95.49-4.87 1.59-5.37 1.13-1.34-1.27-3.22-18.76-3.48-21.73-.16-1.15-.94-3.41.34-4.21.71-.47 1.15-.66 2.05-.89 8.98-2.58 11.93 3.58 12.48 9.78zm-17.23-49.59c6.77-1.67 10.1.55 10.8 5.52.79 5.58-4.51 14.2-8.54 19.09-1.93 2.43-2.04 2.71-2.4.15-.03-.21-.04-.31-.07-.51-1.1-6.77-.74-13.72-1.82-20.36-.26-1.93-.95-3.16 2.03-3.89zm53.15 62.13c-3.92-1.63-8.19.81-11.54.16-1.14-2.93-1.05-9.58-.71-12.78.38-3.6.21-5.44.06-9.05-.12-2.84-1.01-5.15 2.52-6.42 2.61-.86 13.19.15 10.81-3.71-3.33-5.4-11.52-2.87-12.33-3.36-.65-.36 1.23-18.91 1.32-21.24.29-5.95-.3-5.92 6.67-6.36 6.82-.43 5.35-5.51.73-6.6-2.91-.73-11.76.43-14.61 1.32-4.51 1.74-5.25 8.66-5.2 12.15-.19 4.93-.1 9.95-.2 14.77-.06 2.92-.1 5.83-.06 8.68-.06 6.09-.11 12.04.01 18.12.01.21.02.31.04.51.11 3.75.62 7.39 1.07 11.07.28 2.29.2 6.85 1.61 8.84 3.4 3.95 8.04 1.53 12.55.63 2.25-.58 3.68-.22 5.66-.51 4.8-.72 5.09-4.71 1.6-6.22zm66.08-.56c1.45-11.95 3.03-23.92 4.66-35.81.67-4.86 1.61-9.58 2.07-14.35.45-2.68 1.23-7.68-.23-9.96-1.5-2.37-8.21-4.87-11.49-3.42-2.01.94-5.63 7.96-6.89 10.04-4.15 6.58-7.27 12.65-10.52 19.5-2.62 5.35-2.3 4.34-8.16 4.53-4.18.13-4.23 4.39-1.45 6.12 2.62 1.62 3.67.4 2.83 2.93-2.68 7.57-6.71 15.06-9.28 22.68-1.25 3.29-2.85 6.41 1.55 8 4.01 1.3 5.24-1.57 6.07-4.36 1.49-5.33 3.17-10.64 5.36-15.9.79-1.88 5.14-11.14 6.02-12.04.81-.82 9.18.99 9.45 1.28.44.18 0 6.64.03 7.56-.11 4.03-.61 9.7-.25 13.39.19 2.76 1.68 6.33 5.65 5.31 3.33-.85 4.24-2.67 4.58-5.5zm-8.54-29.19c-.7 1.61-3.63 1.14-5.18.97-1.85-.33-2.32-.37-1.84-1.75.93-2.51 7.75-15.29 9.43-16.65.71 2.04-1.59 14.92-2.41 17.43zM247.34 354.99c-1.13-5.68-1.06-11.5-3.2-16.91-1.14-2.63-2.26-6.14-5.83-6.31-3.24-.15-5.37 2.56-3.75 4.85 1.25 1.65 1.83 4.46 2.47 6.45 1.09 3.44 1.22 4.8 1.7 8.3.97 7.14 1.86 13.6 2.23 20.8.01.16.02.24.04.4.07 5.45-.33 11.78-.67 17.25-.27 4.38 0 7.09-2.47.93-2.01-4.71-3.03-7.06-5.1-11.76-4.28-10.06-8.7-19.94-13.6-29.73-1.8-3.61-2.71-5.41-4.54-9-1.63-2.94-3.8-7.45-7.42-8.45-1.97-.55-9.58.13-9.38 2.9.2 2.78.72 5.54.81 8.26.09 2.45.48 4.54.9 6.73.71 3.74.45 7.76 1.07 11.66.69 5.12 1.03 7.67 1.72 12.79.53 4.32 1.46 8.29 2.12 12.45.59 3.76 1.41 7.55 1.9 11.11.57 4.09 1.99 8.4 3.24 12.55 1.33 4.42 4.13 3.33 7.81 3.09 5.04-.32 3.78-5.73 3.19-9.08-.55-2.83-.82-4.25-1.38-7.08-1.1-6.02-2.68-12.51-3.37-18.46-.8-6.88-1.87-14.69-2.07-21.78.04-.83-.22-1.62.37-.6 2.57 4.45 4.49 8.86 6.43 13.68 2.34 5.59 4.71 10.64 7.08 16.1 2.1 4.4 3.61 8.88 5.5 13.31 1.15 2.74 1.64 5.96 4.56 7.43 1.75.91 4.57.22 6.3-.49 2.77-1.35 3.01-8.18 3.48-10.94.66-3.74.4-6.98.65-10.82.51-4.27.66-7.45.5-11.62-.22-5.79-.19-12.45-1.29-18.01zm42.2-1.23c-.81-7.72-1.42-16.66-6.91-22.74-2.41-2.67-6.35-4.23-9.7-2.94-2.6 1-4.34 3.44-5.77 5.83-7.24 12.18-10.03 27-10.14 41.06-.02 3.81-.12 8.45.56 12.08.24 1.35.7 1.86.9 2.8.39 1.6.5 3.1 1.31 4.81 1.19 3.19 3.15 7.69 5.35 10.01 3.19 2.81 9.07 3.47 12.84 1.7 2.69-1.19 5.17-6.01 6.63-8.49 2.13-3.58 1.96-4.32 3.18-8.08 2.63-8.08 3.03-16.83 2.6-25.45-.17-3.57-.49-7.12-.85-10.59zm-7.08 20.08c-.81 6.86-.93 13.63-4.09 20.01-1.44 2.9-2.99 5.81-6.56 6.38-2.98-4.48-2.74-9.04-2.92-14-.09-2.41-.22-5.05-.09-7.47.17-3.09.26-6.41.84-9.56.9-4.32 1.79-8.65 2.86-12.93.63-2.51 2.02-13.14 6.54-8.77 1.02.99 1.46 2.41 1.82 3.79 1.26 4.84 1.95 9.85 2.01 14.85.03 2.58-.11 5.15-.41 7.7zm52.84-44.44c-.18-4.22-6.44-4.78-10.09-5.27-1.28-.13-2.55-.26-3.96-.54-5.08-.62-11.08-1.49-16.25-2.41-3.45-.61-11.62-2.92-10.54 2.34.57 3.39 3.3 4.25 6.73 4.71 1.09.19 4.7.56 5.29.8 1.39.25-1.53 9.24-1.75 10.45-2.02 7.64-2.75 15.1-4.46 22.79-2.47 11.14-5.35 22.22-6.98 33.65-.32 2.56-1.26 5.43-.12 7.71 2.58 3.65 7.92 4.41 8.51-.73.47-3.09.83-5.32 1.63-8.26.77-2.83 1.05-5.33 1.75-8.1 1.6-6.61 3.74-13.3 5.44-19.83 1.56-6 3.54-12.19 5.06-18.23.86-3.42 2.53-14.87 3.58-16.87.6-1.4 9.04.65 10.58.99 2.95.51 5.87-.21 5.58-3.2zm52.9 69.29c1.42-12.56 2.98-25.14 4.59-37.63.66-5.11 1.57-10.06 2.04-15.08.44-2.82 1.2-8.07-.11-10.46-1.36-2.48-7.49-5.08-10.54-3.58-1.87.98-5.34 8.34-6.54 10.51-3.97 6.89-7.01 13.23-10.22 20.38-2.58 5.58-2.28 4.54-7.78 4.62-3.93.06-4.11 4.53-1.53 6.4 2.43 1.75 3.46.5 2.59 3.14-2.73 7.9-6.79 15.69-9.48 23.62-1.3 3.42-2.95 6.67 1.27 8.44 3.84 1.46 5.11-1.53 5.98-4.44 1.57-5.57 3.3-11.12 5.5-16.61.79-1.96 5.11-11.63 5.96-12.56.78-.86 8.66 1.11 8.91 1.42.42.19-.08 6.98-.07 7.94-.15 4.23-.69 10.19-.39 14.07.16 2.9 1.57 6.66 5.39 5.59 3.23-.88 4.11-2.8 4.43-5.77zm-7.85-30.67c-.68 1.69-3.43 1.18-4.89.99-1.73-.36-2.18-.41-1.69-1.86.92-2.62 7.52-16 9.1-17.43.62 2.14-1.71 15.67-2.52 18.3zm-191.41 5.25a6.892 6.892 0 0 1-5.02 8.35c-7.55 1.88-14.49 3.76-20.7 5.53l-6.85 24.97a6.899 6.899 0 0 1-6.64 5.07c-.6 0-1.22-.08-1.83-.25a6.89 6.89 0 0 1-4.82-8.47l4.57-16.65c-5.8 1.83-10.23 3.34-13.06 4.32l-4.25 20.25a6.896 6.896 0 0 1-6.74 5.48c-.47 0-.94-.05-1.42-.15a6.894 6.894 0 0 1-5.33-8.16l4.22-20.1-15.11-13.37a6.887 6.887 0 0 1-.59-9.73c2.53-2.85 6.88-3.12 9.73-.59l15.05 13.32c2.86-1 7.22-2.48 12.86-4.27l-10.72-9.36a6.878 6.878 0 0 1-.65-9.72c2.5-2.86 6.86-3.16 9.72-.65l17.23 15.05c6.53-1.87 13.91-3.87 21.99-5.89 3.69-.91 7.44 1.33 8.36 5.02zm297.15 16.33l-24.89 12.87a6.895 6.895 0 0 1-6.33-12.25l5.67-2.93c-8.25-2.62-24.89-7.51-47.25-12.02-3.73-.75-6.14-4.39-5.39-8.12.75-3.73 4.39-6.15 8.12-5.39 21.4 4.32 37.53 8.9 46.63 11.74l-3.3-6.62a6.882 6.882 0 0 1 3.09-9.24c3.41-1.7 7.54-.32 9.24 3.09l14.41 28.87zm-48.73-232.06L498 139.66l6.49 18.41-62.6 11.99-4.53-12.52zm-289.47 12.52l-62.6-11.99 6.49-18.41 60.64 17.88-4.53 12.52z" fill="#7c6c64"/><path d="M202.79 467c1.65-.28 3.32-.62 4.98-1 3.81-.72 7.06-1.88 9.77-3.45.35-.33.68-.49 1-.46.79-2.28.37-3.98-1.26-5.12-1.63-1.13-2.91-1.92-3.85-2.37-.17.17-.3.24-.38.24-.08-.01-.21.07-.38.24-1.51.77-3.05 1.35-4.61 1.74-1.57.39-3.1.78-4.59 1.18-.99.26-1.94.39-2.83.39-.9 0-1.84.12-2.83.38-1.64.19-3.24.29-4.79.29-1.55.01-3.14.01-4.77 0-.39-.05-.58-.07-.97-.11-.54-1.33-1-2.56-1.39-3.69-.39-1.13-.86-2.18-1.42-3.16-1.47-3.62-3.82-6.17-7.07-7.68-.77-.46-1.62-.8-2.57-1.02-.95-.21-1.9-.39-2.86-.52-3.17-.61-6.18.42-9.07 3.08-1.65 1.76-2.58 3.62-2.8 5.58-.47 2.84.21 5.57 2.07 8.2 1.99 2.83 4.84 4.77 8.52 5.81 3.18.75 4.77 1.12 7.96 1.85.65.08.95.39.9.93.18 1.65.27 3.29.29 4.93.01 1.63.08 3.32.05 4.9-.07 3.66-.51 7.45-1 11.02-.16 1.79-.36 3.53-.6 5.22s-.53 3.42-.85 5.19c-.23.7-.41 1.76-.55 3.19-.47 1.39-.8 2.71-1 3.95-.2 1.24-.45 2.57-.75 3.98-.47 1.39-.8 2.66-.99 3.81-.19 1.16-.52 2.43-.99 3.81-.53 1.93-1.12 3.71-1.79 5.34-.67 1.63-1.35 3.4-2.05 5.31-1.18 3.29-2.5 6.2-3.96 8.73-.4.49-.84 1.02-1.33 1.59-.49.57-1.01 1-1.56 1.29-1.33 1.09-2.55 1.1-3.66.04-.81-.66-1.5-1.57-2.07-2.74-1.05-1.6-1.87-3.72-2.46-6.34-.32-1.86-.7-3.64-1.12-5.33-.42-1.7-.83-3.41-1.13-5.07-.33-1.83-.6-3.63-.84-5.3a320.8 320.8 0 0 0-.83-5.3l-.21-2.76c-.07-.92-.14-1.83-.2-2.76-.18-1.48-.3-3-.38-4.55-.08-1.56-.15-3.23-.34-4.82-.15-1.26-.31-2.54-.34-3.73-.03-1.19-.05-2.51-.05-3.96-.13-1.83-.21-3.67-.25-5.49-.04-1.82-.12-3.74-.22-5.76-.16-1.48-.2-2.94-.12-4.38.08-1.44.04-2.9-.12-4.38.08-.71.11-1.35.1-1.89-.02-.55 0-1.09.07-1.63-.03-2.3-.04-3.44-.07-5.74.08-.71-.25-1.4-.99-2.07-1.37-.94-2.83-1.88-4.16-2.31-2.46-.8-5.77-.51-9.17.36-1.85.22-3.66.9-5.46 2.04-1.6.81-2.93 2.11-4.01 3.92-.52 1.37-1.14 2.62-1.88 3.76-.74 1.14-1.44 2.29-2.1 3.44-1.77 3.14-3.66 6.16-5.67 9.06-2.01 2.9-4.15 5.77-6.43 8.61-.44.65-.94 1.23-1.53 1.75-.59.53-1.1 1.11-1.53 1.75l-.25-.05c.06-.43.09-.64.16-1.06.4-1.57.79-3.08 1.18-4.56.38-1.48.85-3.01 1.42-4.51.51-1.34.98-2.64 1.32-3.85.34-1.21.69-2.42 1.03-3.63.61-1.89 1.17-3.7 1.67-5.43.5-1.73 1.03-3.59 1.66-5.43.52-1.52 1.03-3.09 1.42-4.66.39-1.57.85-3.03 1.37-4.39.1-.71.23-1.33.39-1.84.15-.52.27-1.04.35-1.58.36-1.39.66-2.65.91-3.79.24-1.14.55-2.4.91-3.8.25-1.77-.32-2.89-1.73-3.35a26.3 26.3 0 0 0-2.33-.87c-.78-.24-1.56-.54-2.32-.87a27.831 27.831 0 0 0-10.48-2.16c-.82.01-1.61.12-2.39.32-.77.2-1.58.39-2.43.57-.88.36-1.47 1.07-1.81 2.08-.29.85-.61 1.75-.93 2.68-.32.94-.63 1.84-.93 2.68a25.51 25.51 0 0 0-1.29 4.12c-.31 1.4-.74 2.77-1.29 4.12-.45 1.74-.89 3.43-1.33 5.07-.44 1.65-.87 3.35-1.33 5.07-.41 1.55-.72 3.1-.88 4.62-.16 1.52-.38 3.08-.64 4.67-.51 2.09-.83 4.26-.94 6.53-.12 2.27-.18 4.5-.2 6.69.01 3.12.42 5.87 1.23 8.24 1.41 5.08 4.34 8.46 8.74 10.1 3.79 1.15 7.17 1.01 10.13-.42a18.72 18.72 0 0 0 3.55-2.32c1.07-.89 2.1-1.87 3.11-2.96 2.37-2.28 4.54-4.75 6.52-7.39 1.97-2.64 3.81-5.36 5.54-8.15.42-.65.83-1.22 1.23-1.69-.05.36-.04.59.03.69.07.1.09.25.07.42-.03 1.46-.08 2.81-.16 4.07-.08 1.26-.13 2.53-.12 3.81.14 1.48.16 2.94.06 4.38s-.06 2.92.06 4.38c.14 1.63.21 3.28.26 4.83.05 1.56.15 3.08.31 4.56.27 1.87.51 3.69.71 5.45.2 1.76.44 3.59.72 5.45.53 2.64 1.04 5.1 1.54 7.36.49 2.27 1.09 4.7 1.85 7.14.71 2.29 1.62 4.55 2.58 6.71s2.28 4.28 3.97 6.37c1.23 1.47 2.44 2.79 3.62 3.98 1.18 1.18 2.69 2.19 4.54 3.01 1.52.56 2.28.83 3.81 1.38 1.33.74 2.79 1.04 4.39.91 3-.12 6.27-.6 9.39-1.7 3.03-1.07 5.91-3.21 8.44-5.98a39.09 39.09 0 0 0 4.53-6.78c1.25-2.39 2.49-4.9 3.51-7.45 1.14-2.86 2.1-5.86 2.95-8.75.85-2.89 1.65-5.82 2.42-8.81.55-2.87.82-4.3 1.37-7.17.51-2.11.95-4.24 1.29-6.37.34-2.13.62-4.36.81-6.69l.54-6.46c.18-2.15.22-4.36.05-6.51-.15-1.8-.27-3.65-.28-5.46-.01-1.81-.11-3.63-.28-5.46.03-.32.04-.48.07-.81.17-.16.51-.21 1-.15 1.32-.03 2.63-.06 3.95-.1 1.31-.03 2.64-.16 3.96-.38 1.79-.16 3.53-.39 5.19-.68zm-24.96-9.23c-1.31.02-2.75-.35-4.3-1.1-.79-.28-1.79-.87-3.01-1.76-.31-.22-.75-.73-1.31-1.54-.43-.6-.22-1.12.64-1.54.2-.08.31-.12.51-.2 1.78.06 3.33.54 4.62 1.43 1.29.89 2.25 2.38 2.88 4.45-.02.1-.02.16-.03.26zm196.27-19.02c-.21-2.93.6-5.35 2.42-7.27 1.81-1.91 4.03-2.98 6.66-3.19 2.63-.21 5.03.52 7.21 2.19 2.18 1.68 3.24 3.83 3.16 6.48.54 2.59-.07 4.98-1.86 7.15s-4.12 3.38-6.96 3.6c-2.68.21-5.08-.53-7.19-2.24-2.1-1.7-3.24-3.95-3.44-6.72zm134.99 36.61c-.6-.51-1.66-.78-3.18-.81-.36-.09-.73.14-1.13.68-.64 2.01-1.24 3.97-1.82 5.88-.58 1.91-1.27 3.89-2.09 5.92-1.26 3.37-2.45 6.69-3.58 9.94-1.13 3.26-2.35 6.57-3.66 9.94-.51 1.03-.99 2.01-1.43 2.95-.44.94-.93 1.92-1.44 2.95.03.15-.1.41-.39.77-.68-.98-1.19-1.92-1.5-2.81-.32-.89-.64-1.77-.96-2.66-.65-2.87-1.01-6.1-1.1-9.69.15-1.12.18-2.22.08-3.31-.1-1.08-.05-2.2.08-3.31.15-1.25.24-2.59.35-3.94.11-1.35.22-2.66.34-3.94.34-1.94.64-3.88.9-5.8s.56-3.78.92-5.57c.25-1.46.5-2.87.76-4.25s.6-2.73 1.03-4.07c.27-1.3.46-2.51.6-3.64.13-1.12.01-2.27-.37-3.47-.32-1.83-1.15-3.25-2.48-4.27a13.77 13.77 0 0 0-5.08-2.41c-1.88-.46-3.75-.93-5.62-1.4-.84-.17-1.72-.3-2.63-.39-.91-.08-1.79-.22-2.62-.39-.84-.18-1.57-.42-2.18-.71-.61-.29-1.26-.54-1.94-.75-.16.03-.25-.04-.27-.19-.66-.46-.98-.69-1.64-1.15.42-3.51.27-7.24-.43-11.2-.71-3.96-2.2-7.09-4.45-9.4-2.04-1.87-4.28-2.63-6.75-2.26-.31.05-.69.14-1.14.29-.45.15-.83.24-1.14.28-3.73 1.49-5.56 4.16-5.49 8.05.03 2.5.89 5.23 2.59 8.18 1.7 2.96 4.05 5.95 7.08 8.94.4.57.7.92.88 1.04.01.09.02.14.03.23.45.4.67.6 1.12 1.01-.5 3.2-1.02 6.25-1.58 9.14-1.25 6.43-3.92 11.97-5.35 18.29-1.99 8.77-5.24 17.85-11.06 24.79-.96 1.13-1.87 2.3-2.73 3.49-.74.87-1.56 1.79-2.46 2.75-.9.97-1.72 1.88-2.47 2.75-.46.37-.89.73-1.27 1.08-.38.36-.81.72-1.27 1.08-.79.56-1.58 1.08-2.37 1.56-.8.48-1.68.93-2.65 1.35-1.11.75-2.07.54-2.87-.62-.37-.27-.62-.63-.76-1.08-.14-.45-.3-.82-.5-1.11-.27-.9-.41-1.78-.41-2.64-.01-.85-.06-1.74-.16-2.66-.08-.77-.12-1.46-.1-2.09.02-.62-.01-1.24-.07-1.86.08-.79.08-1.56 0-2.33s-.08-1.54 0-2.33c-.07-.61-.09-1.19-.06-1.74.02-.54.08-1.21.16-2 .52-3.36.88-4.36 4.11-4.65 3.03-.27 4.98-1.43 7.51-3.3 4.92-3.64 9.02-8.38 11.88-13.79 3.7-7 5.11-17.14-2.36-22.46-4.08-2.91-9.55-3.44-14.38-2.12-4.83 1.32-9.07 4.32-12.56 7.91-6.59 6.76-11.19 15.34-13.49 24.52-.24.95-.44 1.94-.59 2.97-.15 1.03-.35 2.01-.59 2.96-.03.2-.05.39-.08.59-.24.57-.48 1.14-.7 1.69a64.73 64.73 0 0 1-1.86 4.24c-1.13 2.28-2.21 4.62-3.26 7.03-1.05 2.42-2.12 4.89-3.29 7.26-1.11 2.25-2.29 4.46-3.39 6.55-1.1 2.1-2.25 4.29-3.43 6.54-.15.32-.3.6-.45.85-.15.24-.38.53-.7.87-.11-.09-.16-.13-.27-.21-.01-.15-.21-.53-.59-1.12-.64-1.82-1.03-3.72-1.18-5.73-.36-2.61-.39-5.47-.12-8.6.24-1.26.41-2.39.51-3.41.09-1.01.26-2.15.5-3.41.26-.95.44-1.93.53-2.95.09-1.01.26-2 .52-2.95.62-3.67.92-5.51 1.53-9.19.83-4.53 1.24-6.8 2.05-11.33.83-4.25 1.24-6.38 2.05-10.64.19-1.57.1-2.72-.29-3.47-.05-.61-.26-1.22-.63-1.81-.82-2.11-2.43-3.33-4.86-3.68-2.43-.35-4.39.14-5.88 1.49-2.56 2.2-4.4 4.65-5.5 7.36-1.43 2.73-2.54 5.48-3.33 8.24-.8 2.76-1.52 5.56-2.16 8.38-.27.95-.46 1.89-.57 2.82-.76 6.79-3.17 13.63-6.3 19.64-1.66 3.19-3.25 6.33-4.77 9.42-1.52 3.1-3.14 6.23-4.86 9.4-.64.96-1.23 1.87-1.78 2.75-.56.88-1.16 1.79-1.79 2.75.01.16-.15.4-.48.72-.55-1.06-.93-2.05-1.14-2.97-.21-.92-.42-1.84-.62-2.76-.29-2.93-.24-6.18.12-9.75.29-1.09.45-2.19.49-3.27.04-1.08.23-2.19.49-3.27.3-1.22.56-2.54.84-3.87.28-1.32.55-2.61.83-3.86.58-1.88 1.12-3.77 1.61-5.64.49-1.87 1.03-3.68 1.6-5.41.43-1.41.85-2.79 1.28-4.12.43-1.33.93-2.63 1.52-3.9.43-1.26.77-2.44 1.04-3.53.27-1.09.29-2.26.07-3.49-.09-1.85-.74-3.36-1.92-4.55a13.896 13.896 0 0 0-4.72-3.03c-1.8-.69-3.59-1.39-5.38-2.09-.81-.28-1.67-.52-2.55-.72-.89-.2-1.74-.44-2.55-.72-.81-.28-1.5-.61-2.07-.97-.57-.37-1.18-.69-1.83-.98-.16.01-.24-.07-.25-.22-.59-.54-.89-.81-1.48-1.35.85-3.43 1.17-7.15.96-11.17-.21-4.01-1.29-7.31-3.24-9.88-1.78-2.11-3.91-3.14-6.4-3.08-.31.01-.7.06-1.16.14-.47.09-.85.13-1.17.14-3.88 1.01-6.02 3.43-6.44 7.3-.28 2.48.23 5.3 1.54 8.44 1.31 3.15 3.27 6.41 5.9 9.75.33.61.58 1 .74 1.14 0 .09 0 .14.01.23.39.46.59.68.98 1.14-.89 3.12-1.79 6.07-2.7 8.87-.76 2.33-1.57 4.64-2.42 6.89-3.51 9.3-8.1 18.6-13.1 27.17-1.81 3.1-3.55 6.16-5.22 9.18-1.67 3.02-3.44 6.07-5.3 9.16-.68.92-1.32 1.81-1.91 2.66-.6.85-1.24 1.73-1.92 2.66 0 .16-.17.39-.51.69-.5-1.08-.83-2.1-.99-3.02-.16-.93-.33-1.86-.48-2.79-.15-2.94.06-6.18.59-9.74.34-1.08.56-2.16.65-3.24.09-1.08.33-2.18.65-3.24.36-1.2.68-2.51 1.02-3.82.34-1.31.68-2.58 1.02-3.82.67-1.85 1.3-3.71 1.88-5.56.58-1.85 1.2-3.63 1.86-5.33.49-1.39.99-2.74 1.48-4.06.49-1.31 1.06-2.59 1.71-3.83.48-1.24.89-2.4 1.21-3.48.32-1.08.4-2.24.23-3.48 0-1.85-.57-3.4-1.7-4.64a13.767 13.767 0 0 0-4.57-3.25c-1.77-.78-3.52-1.56-5.27-2.35-.8-.32-1.64-.6-2.51-.84-.88-.24-1.72-.52-2.51-.84-.79-.32-1.47-.68-2.02-1.07s-1.15-.75-1.78-1.07c-.16 0-.24-.08-.24-.24-.57-.57-.85-.85-1.41-1.42 1.02-3.38 1.51-7.08 1.5-11.11-.01-4.02-.94-7.36-2.76-10.03-1.68-2.2-3.75-3.32-6.24-3.39-.31-.01-.7.02-1.17.09-.47.07-.86.09-1.17.08-3.92.82-6.18 3.14-6.78 6.98-.4 2.46-.02 5.3 1.14 8.51s2.96 6.56 5.42 10.02c.3.63.53 1.02.69 1.18 0 .09 0 .14-.01.23l.93 1.18c-1.04 3.07-2.08 5.98-3.12 8.73-2.17 5.69-5.03 11.09-7.96 16.42-2.57 4.68-4.71 10.27-8.56 13.98-.69.67-1.47 1.37-2.33 2.1-.34.14-.59.24-.76.31-.17.07-.43.25-.77.55.19-.46.29-.91.31-1.38.18-.46.3-1.15.34-2.07.21-1.07.38-2.11.51-3.11s.22-2.04.26-3.12l.25-5.56c-.1-1.55-.19-3.03-.29-4.43-.1-1.39-.28-2.87-.53-4.43-.37-2.65-1.07-5.08-2.09-7.3-1.16-2.84-2.82-5.16-4.97-6.98-2.16-1.82-4.51-2.8-7.06-2.95-2.72-.16-5.1.69-7.14 2.34-2.13 1.72-3.83 4.16-4.86 7.34-.39.9-.6 1.59-.63 2.05-.32-.02-.56-.12-.71-.28-.32-.18-.63-.31-.95-.42-.32-.1-.63-.24-.94-.42-2.55-.65-4.86-.6-6.82-.05-2.25.64-3.95 1.54-4.87 2.86-.54.58-.99 1.12-1.36 1.63-.37.51-.75 1.14-1.14 1.88-.39.74-.78 1.53-1.18 2.34-.4.82-.8 1.68-1.21 2.57a36.273 36.273 0 0 0-2.86 7.2c-.23.76-.42 1.47-.56 2.16-.14.68-.33 1.41-.57 2.16-.74 2.73-1.23 5.33-1.45 7.79-.07.77-.15 1.62-.23 2.54-.08.92.01 1.86.02 2.56.04 2.77-.06 6.28.66 9.61.29 2.51 1.01 4.9 2.18 7.17 1.13 2.74 2.72 5.12 4.79 7.15 2.55 2.38 5.78 3.87 9.69 4.47 1.02.23 2.08.3 3.21.23 1.12-.08 2.24-.21 3.25-.47.85-.22 1.74-.47 2.62-.64.87-.18 1.74-.47 2.63-.88 3.51-1.33 6.56-3.4 9.07-6.2 2.36-2.63 4.27-5.19 5.75-7.59.93-1.66 1.77-3.24 2.51-4.75.74-1.51 1.41-3.1 1.99-4.78.2-.76.73-1.28 1.58-1.55.33.02.58-.01.76-.08.17-.07.42-.1.76-.08 1.01-.26 1.95-.69 2.81-1.27.86-.58 1.72-1.24 2.58-1.98a28.95 28.95 0 0 0 3.2-3.25c.06.05.11.07.17.13.15-.29.3-.57.45-.86 4.51-5.65 6.63-11.38 9.24-18.14 2.29-5.9 5.93-11.61 9.02-17.12 1.59.81 3.14 1.69 4.66 2.64 1.51.95 2.99 1.83 4.44 2.62-.34.77-.75 1.5-1.24 2.19-.5.69-.91 1.42-1.25 2.18-.5 1.08-1.05 2.15-1.64 3.22-.59 1.07-1.14 2.22-1.65 3.45-.68 1.38-1.28 2.76-1.79 4.14l-1.56 4.14c-.87 2.15-1.58 4.38-2.13 6.68-.55 2.31-1.02 4.62-1.4 6.93-.57 3.08-.9 6.09-.97 9.02-.5 6.8.26 13.16 2.35 19.08.96 2.96 2.61 5.39 4.98 7.29 3.38 2.69 7.17 3.13 11.3 1.3 1.89-.76 3.49-1.71 4.78-2.87 1.29-1.15 2.45-2.43 3.47-3.82.85-1.24 1.54-2.43 2.05-3.59.51-1.16 1.1-2.36 1.78-3.6.67-1.55 1.35-3.06 2.02-4.53.67-1.47 1.33-3.06 2-4.76.83-2.01 1.7-3.99 2.6-5.93 7.05-15.15 12.75-30.95 20.23-45.93 1.62.73 3.22 1.54 4.78 2.41 1.56.88 3.08 1.68 4.56 2.4-.3.79-.68 1.53-1.14 2.24-.46.71-.84 1.46-1.14 2.24-.45 1.1-.94 2.2-1.48 3.3a34.65 34.65 0 0 0-1.48 3.53c-.61 1.41-1.14 2.82-1.59 4.22-.45 1.41-.9 2.81-1.36 4.21-.76 2.19-1.36 4.45-1.8 6.78-.44 2.33-.79 4.66-1.07 6.99-.42 3.11-.6 6.12-.53 9.06-.17 6.81.89 13.13 3.26 18.94 1.1 2.91 2.87 5.26 5.33 7.04 3.51 2.52 7.32 2.78 11.36.76 1.86-.85 3.4-1.88 4.63-3.1 1.23-1.22 2.33-2.54 3.28-3.98.79-1.28 1.42-2.51 1.87-3.69.45-1.18.99-2.41 1.6-3.68.6-1.58 1.2-3.12 1.8-4.62.6-1.5 1.19-3.12 1.77-4.86.73-2.05 1.5-4.07 2.31-6.05.04-.09.07-.18.11-.27.06 1.08.12 2.14.18 3.16.09 1.55.26 3.17.53 4.85.25 1.53.59 2.99 1.01 4.36.42 1.37.84 2.82 1.27 4.34.6 1.51 1.28 2.91 2.04 4.18.76 1.27 1.86 2.48 3.3 3.63 3.62 3.18 7.8 3.6 12.44 1.25 3.48-1.8 6.11-4.34 7.9-7.58.6-.98 1.08-1.99 1.42-3.02.34-1.03.72-2.11 1.14-3.23.56-1.44 1.07-2.92 1.54-4.43a43.99 43.99 0 0 1 1.75-4.69c.67-2.07 1.33-4.07 2-6 .54-1.56 1.08-3.19 1.61-4.85.21 1.08.45 2.17.77 3.24.31 1.53.89 3.26 1.74 5.2 1.07 2.39 2.35 4.36 3.85 5.93 1.91 2.31 3.94 3.9 6.08 4.77 2.31 1.02 4.67 1.47 7.06 1.37 1.69-.18 3.44-.6 5.25-1.27.49-.21.94-.37 1.36-.5.41-.12.86-.29 1.35-.5a45.777 45.777 0 0 0 5.8-3c1.44-.79 2.85-1.89 4.21-3.31 2.01-1.65 3.82-3.51 5.43-5.59 11.45-15.32 14.53-36.63 20.81-54.44 1.71.52 3.39 1.12 5.06 1.8 1.66.68 3.27 1.28 4.84 1.81-.2.82-.48 1.6-.85 2.37-.37.76-.66 1.55-.85 2.37-.31 1.15-.66 2.3-1.06 3.46-.4 1.16-.74 2.39-1.03 3.68-.43 1.48-.78 2.94-1.06 4.39-.27 1.45-.55 2.9-.83 4.35-.49 2.27-.8 4.58-.95 6.95-.14 2.37-.21 4.72-.19 7.07-.03 3.13.17 6.15.6 9.06.68 6.78 2.53 12.91 5.61 18.39 1.46 2.75 3.51 4.86 6.18 6.32 3.8 2.06 7.63 1.84 11.4-.67 1.74-1.08 3.15-2.29 4.22-3.65 1.07-1.36 2-2.81 2.77-4.36.63-1.37 1.1-2.66 1.4-3.9.3-1.23.68-2.51 1.14-3.85.4-1.64.8-3.24 1.21-4.81.41-1.56.79-3.24 1.15-5.04.47-2.13.99-4.22 1.55-6.29.56-2.07 1.08-4.09 1.56-6.07.13-1.12.36-2.19.68-3.19.32-1 .56-1.99.71-2.97.42-2.28.86-4.41 1.32-6.39.17-.53 0-.97-.57-1.33zM422.4 485.7c.93-4.37.96-8.55 2.52-12.78 1.55-4.24 3.69-8.29 6.39-11.91.88-1.18 1.86-2.34 3.14-3.08 4.08-2.34 7.41.62 7.3 4.79-.14 4.82-2.44 9.92-5.34 13.69-3.5 4.51-8.5 7.83-14.01 9.29zm-186.07 24.52c-.4 1.22-.93 2.43-1.58 3.63-.66 1.21-1.34 2.46-2.09 3.6-.68 1.03-1.47 2.05-2.2 3.01-.73.96-1.55 1.88-2.45 2.76-2.17 2.19-4.56 3.74-7.18 4.65-.69.11-1.33.22-1.94.33-.61.11-1.25.14-1.92.1-1.7-.12-2.84-.74-3.44-1.87-.6-1.13-.97-2.52-1.23-4.05-.21-1.23-.36-2.59-.33-3.98.02-1.39.08-2.78.19-4.17.25-1.07.41-2.06.48-2.99.07-.92.23-1.92.47-2.99.25-1.07.45-2.13.62-3.21.16-1.07.45-2.14.86-3.19.8-2.73 1.2-4.1 1.99-6.83.42-1.21.83-2.34 1.24-3.4.4-1.05.81-2.19 1.23-3.4.22-.76.71-1.89 1.47-3.38.01-.15.1-.3.28-.45-.01.16.06.32.21.48.24 1.26.45 2.4.63 3.41.18 1.02.47 2.09.89 3.2 1.48 4.91 3.78 9.09 6.9 12.53.94.99 1.96 1.94 3.08 2.86a21.3 21.3 0 0 0 3.62 2.41c.32.33.38.64.2.94zm4.33-20.44c-.1 2.01-.3 4.09-.57 6.24-.03.62-.1 1.16-.21 1.61-.11.46-.18 1-.21 1.62-.1-.01-.15-.01-.25-.01-.64-.5-1.42-1.39-2.34-2.68-2.15-3.06-3.74-6.79-4.79-11.19-.28-.95-.54-1.93-.81-2.95-.27-1.02-.42-2.12-.54-3.17-.09-.76-.19-1.56-.22-2.34-.03-.77.13-1.54.51-2.29.05-.77.33-1.37.84-1.81.2-.61.86-.88 1.99-.81.8.05 1.44.28 1.9.69.46.41.92.86 1.38 1.36.61.65 1.1 1.38 1.46 2.17.36.79.68 1.59.97 2.37.28.79.44 1.61.48 2.46.04.85.11 1.67.24 2.45.21 2.18.27 4.27.17 6.28zm32.36-36.84c-.77-1.25-1.56-2.86-2.37-4.81-.82-1.95-1.21-3.24-1.2-3.86-.27-1.55-.09-2.55.55-3 .32-.3.56-.45.72-.44.62.02 1.17.34 1.62.97.31.32.71 1.33 1.22 3.05.52 1.7.34 4.4-.54 8.09zm52.29-.03c-.82-1.22-1.69-2.78-2.6-4.69-.91-1.91-1.37-3.18-1.38-3.8-.35-1.54-.21-2.55.41-3.03.31-.31.54-.47.69-.48.62-.01 1.18.28 1.67.89.32.31.77 1.3 1.37 2.98.59 1.7.54 4.4-.16 8.13zm135.02-11.81c-.97-1.1-2.03-2.55-3.17-4.33-1.15-1.78-1.76-2.98-1.85-3.6-.54-1.48-.53-2.5.03-3.05.27-.35.48-.54.63-.56.62-.09 1.21.13 1.77.67.36.26.93 1.19 1.73 2.79.8 1.6 1.09 4.29.86 8.08zM482 167.89l8.17 30.61-16.88 5.55-8.2-33.18 16.91-2.98zm-357.33 2.97l-8.2 33.18-16.88-5.55 8.17-30.61 16.91 2.98z" fill="#f08738"/></svg>