<?xml version="1.0" encoding="utf-8"?>
<!-- Generator: Adobe Illustrator 23.0.2, SVG Export Plug-In . SVG Version: 6.00 Build 0)  -->
<svg version="1.1" id="Layer_1" xmlns="http://www.w3.org/2000/svg" xmlns:xlink="http://www.w3.org/1999/xlink" x="0px" y="0px"
	 viewBox="0 0 595.28 595.28" style="enable-background:new 0 0 595.28 595.28;" xml:space="preserve">
<style type="text/css">
	.st0{fill:#7AC3EC;}
	.st1{fill:#F08738;}
	.st2{fill:#7C6C64;}
</style>
<g>
	<path class="st0" d="M187.44,288.08c-0.48-3.35-1.02-6.73-1.61-10.14c-0.75-3.18-1.12-4.78-1.87-7.96
		c-0.44-2.4-0.97-4.78-1.58-7.11c-0.61-2.33-1.35-4.73-2.21-7.19c-0.8-2.27-1.59-4.54-2.39-6.81c-0.8-2.27-1.77-4.53-2.95-6.6
		c-0.99-1.74-1.98-3.54-2.84-5.36c-0.86-1.81-1.82-3.6-2.87-5.35c-0.12-0.34-0.19-0.51-0.31-0.85c0.11-0.25,0.45-0.49,1-0.69
		c1.4-0.74,2.8-1.48,4.2-2.2c1.4-0.73,2.78-1.54,4.12-2.46c1.9-1.11,3.7-2.22,5.39-3.34c1.69-1.12,3.38-2.29,5.06-3.49
		c3.91-2.6,7.09-5.32,9.51-8.2c0.26-0.5,0.57-0.82,0.95-0.94c-0.03-2.73-1.2-4.31-3.55-4.72c-2.34-0.41-4.15-0.61-5.42-0.62
		c-0.13,0.26-0.24,0.4-0.33,0.43c-0.1,0.03-0.21,0.18-0.34,0.43c-1.4,1.52-2.9,2.87-4.51,4.05c-1.61,1.18-3.16,2.35-4.66,3.51
		c-1,0.77-2,1.39-2.99,1.85c-1,0.46-1.99,1.08-2.98,1.86c-1.74,1.06-3.46,2-5.15,2.84c-1.7,0.84-3.44,1.72-5.22,2.6
		c-0.44,0.17-0.67,0.25-1.11,0.42c-1.23-1.03-2.34-2-3.32-2.91c-0.98-0.91-2.02-1.69-3.13-2.34c-3.41-2.76-7.32-3.92-11.69-3.44
		c-1.09,0.01-2.21,0.2-3.36,0.56c-1.15,0.37-2.29,0.79-3.41,1.25c-3.8,1.38-6.52,4.29-8.13,8.72c-0.79,2.75-0.74,5.15,0.12,7.17
		c1.07,3.03,3.3,5.22,6.64,6.6c3.6,1.5,7.55,1.64,11.92,0.48c3.7-1.15,5.56-1.71,9.28-2.81c0.72-0.29,1.2-0.15,1.41,0.41
		c1,1.54,1.92,3.12,2.73,4.74c0.81,1.62,1.7,3.27,2.44,4.86c1.71,3.69,3.08,7.73,4.29,11.56c0.69,1.88,1.33,3.73,1.89,5.55
		c0.57,1.82,1.1,3.71,1.62,5.66c0.1,0.82,0.43,1.99,0.97,3.49c0.2,1.64,0.51,3.14,0.9,4.49c0.39,1.35,0.77,2.82,1.15,4.39
		c0.2,1.65,0.48,3.09,0.84,4.35c0.36,1.26,0.64,2.71,0.85,4.35c0.41,2.21,0.69,4.31,0.83,6.29c0.14,1.99,0.34,4.12,0.59,6.39
		c0.46,3.91,0.63,7.51,0.51,10.8c-0.12,0.7-0.27,1.46-0.43,2.28c-0.16,0.82-0.42,1.52-0.77,2.1c-0.65,1.78-1.7,2.44-3.16,1.98
		c-1.01-0.22-2.04-0.76-3.1-1.61c-1.69-1.02-3.42-2.66-5.23-4.92c-1.2-1.66-2.4-3.2-3.62-4.63c-1.22-1.43-2.43-2.88-3.55-4.33
		c-1.22-1.6-2.37-3.21-3.44-4.7c-1.07-1.49-2.23-3.05-3.47-4.68c-0.54-0.85-1.08-1.71-1.62-2.56c-0.54-0.85-1.08-1.7-1.62-2.56
		c-0.94-1.33-1.85-2.72-2.75-4.18c-0.9-1.46-1.85-3.03-2.88-4.46c-0.81-1.13-1.65-2.27-2.32-3.39c-0.67-1.12-1.4-2.38-2.19-3.78
		c-1.12-1.68-2.19-3.4-3.23-5.12c-1.04-1.72-2.16-3.51-3.38-5.38c-0.98-1.31-1.83-2.69-2.55-4.11c-0.72-1.42-1.58-2.8-2.57-4.1
		c-0.32-0.73-0.64-1.36-0.97-1.87c-0.33-0.51-0.61-1.04-0.85-1.59c-1.33-2.16-1.99-3.25-3.33-5.4c-0.32-0.73-1.05-1.17-2.18-1.3
		c-1.92,0.02-3.94,0.13-5.53,0.63c-2.95,0.93-6.08,3.5-8.9,6.7c-1.68,1.51-3.04,3.43-4.08,5.76c-1.04,1.88-1.51,4.04-1.42,6.47
		c0.35,1.62,0.54,3.22,0.55,4.78c0.01,1.57,0.07,3.13,0.17,4.65c0.3,4.13,0.44,8.24,0.43,12.31c-0.01,4.08-0.12,8.22-0.33,12.42
		c0.03,0.9-0.05,1.79-0.23,2.69c-0.18,0.89-0.25,1.79-0.22,2.68c-0.1,0.05-0.15,0.08-0.24,0.13c-0.21-0.43-0.32-0.64-0.53-1.07
		c-0.63-1.7-1.24-3.36-1.83-4.96c-0.59-1.61-1.15-3.33-1.59-5.1c-0.39-1.58-0.8-3.09-1.25-4.43c-0.46-1.34-0.91-2.68-1.37-4.02
		c-0.65-2.15-1.29-4.18-1.93-6.11c-0.64-1.92-1.34-3.99-1.93-6.11c-0.49-1.75-1.02-3.54-1.66-5.24c-0.64-1.7-1.15-3.35-1.52-4.97
		c-0.36-0.71-0.63-1.36-0.82-1.94c-0.18-0.58-0.41-1.14-0.68-1.68c-0.55-1.52-1.08-2.88-1.58-4.09c-0.5-1.2-1.03-2.57-1.58-4.09
		c-0.91-1.78-2.2-2.34-3.87-1.66c-0.97,0.3-1.92,0.65-2.83,1.04c-0.92,0.39-1.86,0.75-2.83,1.05c-4.21,1.43-8.03,3.61-11.44,6.52
		c-0.77,0.68-1.44,1.42-2.01,2.22c-0.58,0.8-1.2,1.63-1.86,2.49c-0.56,1.03-0.61,2.13-0.22,3.27c0.33,0.96,0.66,1.99,1.02,3.05
		c0.37,1.06,0.71,2.08,1.02,3.05c0.44,1.6,1.01,3.12,1.69,4.57c0.69,1.45,1.26,2.97,1.7,4.56c0.8,1.85,1.57,3.65,2.32,5.41
		c0.75,1.76,1.53,3.57,2.32,5.41c0.71,1.66,1.5,3.23,2.39,4.67c0.89,1.44,1.76,2.95,2.62,4.52c0.98,2.2,2.18,4.32,3.59,6.37
		c1.42,2.05,2.84,4.03,4.28,5.95c2.07,2.71,4.2,4.78,6.39,6.25c4.43,3.38,8.89,4.2,13.47,2.49c3.78-1.7,6.46-4.22,8.05-7.6
		c0.68-1.5,1.2-3.04,1.57-4.6c0.36-1.56,0.65-3.18,0.86-4.88c0.66-3.74,1.07-7.51,1.23-11.31c0.16-3.8,0.2-7.58,0.1-11.35
		c-0.01-0.89,0.03-1.7,0.12-2.42c0.17,0.36,0.32,0.57,0.44,0.62c0.12,0.05,0.23,0.16,0.31,0.34c0.84,1.37,1.6,2.66,2.27,3.89
		c0.67,1.23,1.38,2.44,2.13,3.62c1,1.28,1.87,2.63,2.61,4.04c0.75,1.41,1.64,2.77,2.6,4.05c1.07,1.43,2.08,2.92,3.01,4.35
		c0.94,1.43,1.89,2.79,2.87,4.08c1.3,1.58,2.53,3.14,3.69,4.67c1.16,1.53,2.39,3.1,3.66,4.69c1.91,2.17,3.7,4.18,5.35,6.03
		c1.65,1.85,3.46,3.8,5.4,5.68c1.82,1.76,3.76,3.38,5.69,4.89c1.92,1.51,4.11,2.78,6.57,3.83c1.76,0.71,3.43,1.31,4.99,1.8
		c1.57,0.48,3.31,0.62,5.24,0.41c1.53-0.29,2.29-0.44,3.83-0.72c1.46,0.01,2.82-0.48,4.09-1.46c2.45-1.71,4.99-3.91,7.15-6.6
		c2.1-2.62,3.63-6.23,4.61-10.27c0.6-3.03,0.94-6.07,1.01-9.1c0.07-3.03,0.09-6.19-0.1-9.28
		C188.35,294.93,187.92,291.43,187.44,288.08z M146.82,227.73c-0.99,0.2-2.36,0.22-4.13,0.09c-0.44-0.03-1.18-0.26-2.21-0.7
		c-0.78-0.32-0.83-0.96-0.13-1.9c0.18-0.2,0.26-0.31,0.44-0.51c1.95-1.03,3.86-1.5,5.72-1.4c1.86,0.1,3.66,1,5.38,2.69
		c0.04,0.11,0.07,0.17,0.11,0.28C150.59,227.06,148.87,227.54,146.82,227.73z M394.79,209.97c-2-2.07-2.87-4.46-2.58-7.19
		c0.3-2.89,1.65-5.09,4.09-6.6c2.43-1.5,5.19-2.07,8.24-1.7c3.05,0.37,5.63,1.63,7.71,3.76c2.08,2.13,2.74,4.46,2.04,6.99
		c0,2.62-1.24,4.76-3.69,6.44c-2.45,1.68-5.23,2.32-8.37,1.94C399.26,213.24,396.79,212.03,394.79,209.97z M518.22,282.45
		c-0.27-0.25-0.71-0.23-1.31,0.05c-1.49,1.44-2.92,2.86-4.29,4.26c-1.37,1.4-2.87,2.8-4.48,4.21c-2.58,2.38-5.05,4.76-7.4,7.15
		c-2.36,2.39-4.78,4.8-7.26,7.24c-0.85,0.7-1.65,1.38-2.4,2.03c-0.75,0.66-1.55,1.33-2.39,2.04c-0.04,0.15-0.25,0.33-0.63,0.53
		c-0.17-1.16-0.21-2.21-0.12-3.13c0.09-0.92,0.17-1.85,0.26-2.78c0.61-2.84,1.6-5.89,2.99-9.14c0.59-0.94,1.06-1.91,1.43-2.92
		c0.36-1,0.86-1.98,1.44-2.92c0.64-1.05,1.28-2.21,1.95-3.36c0.66-1.15,1.31-2.27,1.96-3.36c1.12-1.58,2.22-3.16,3.28-4.75
		c1.06-1.59,2.14-3.1,3.24-4.52c0.86-1.17,1.71-2.31,2.56-3.41c0.85-1.09,1.76-2.13,2.76-3.1c0.83-1.02,1.56-1.99,2.2-2.91
		c0.63-0.92,1.04-1.99,1.24-3.21c0.53-1.75,0.41-3.38-0.38-4.91c-0.91-1.72-2.17-3.21-3.76-4.49c-1.6-1.28-3.2-2.54-4.81-3.8
		c-0.75-0.53-1.55-1.05-2.39-1.52c-0.85-0.48-1.66-0.99-2.4-1.51c-0.75-0.53-1.37-1.06-1.85-1.59c-0.48-0.53-1.02-1.03-1.61-1.51
		c-0.17-0.05-0.23-0.14-0.19-0.29c-0.46-0.7-0.69-1.04-1.15-1.74c1.88-2.97,3.31-6.37,4.27-10.22c0.96-3.85,0.76-7.31-0.64-10.37
		c-1.35-2.57-3.43-4.23-6.22-4.95c-0.35-0.09-0.79-0.16-1.34-0.22c-0.54-0.06-0.99-0.14-1.34-0.22c-4.59-0.22-7.6,1.5-9.02,5.08
		c-0.92,2.29-1.05,5.13-0.42,8.5c0.63,3.38,1.9,7.03,3.78,10.97c0.18,0.68,0.34,1.11,0.48,1.3c-0.02,0.09-0.03,0.13-0.06,0.22
		c0.29,0.55,0.44,0.82,0.72,1.37c-1.75,2.7-3.45,5.26-5.1,7.68c-1.38,2.01-2.77,3.99-4.19,5.92c-1.42,1.93-2.67,3.39-3.76,4.38
		c-5.28,4.8-8.25,11.78-14.22,15.85c-0.78,0.53-1.64,1.08-2.59,1.65c-0.35,0.08-0.61,0.14-0.78,0.18c-0.18,0.04-0.45,0.18-0.83,0.41
		c0.25-0.42,0.42-0.84,0.52-1.29c0.25-0.42,0.47-1.07,0.66-1.96c0.38-1.01,0.71-1.99,1-2.95c0.28-0.95,0.54-1.95,0.76-3
		c0.45-2.15,0.68-3.23,1.14-5.38c0.15-1.53,0.29-2.99,0.42-4.37c0.12-1.38,0.18-2.85,0.17-4.42c0.05-2.65-0.29-5.14-1.01-7.48
		c-0.77-2.97-2.16-5.53-4.18-7.66c-2.02-2.13-4.4-3.46-7.1-3.98c-2.88-0.55-5.52-0.03-7.85,1.33c-2.44,1.43-4.46,3.63-5.83,6.65
		c-0.49,0.84-0.77,1.5-0.84,1.95c-0.33-0.06-0.57-0.17-0.71-0.35c-0.31-0.21-0.63-0.38-0.95-0.51c-0.32-0.13-0.64-0.3-0.94-0.51
		c-2.6-0.9-5.01-1.07-7.09-0.69c-2.39,0.44-4.2,1.21-5.23,2.45c-0.59,0.53-1.08,1.04-1.49,1.52c-0.41,0.48-0.83,1.08-1.27,1.78
		c-0.44,0.71-0.88,1.46-1.33,2.24c-0.45,0.79-0.89,1.61-1.35,2.47c-4.03,7.62-8.75,15.31-13.91,22.2c-1.47,1.96-2.98,3.88-4.38,5.71
		c-1.4,1.84-2.84,3.75-4.3,5.74c-0.19,0.29-0.37,0.54-0.55,0.75c-0.18,0.21-0.44,0.45-0.78,0.72c-0.08-0.1-0.13-0.15-0.21-0.25
		c0.02-0.15-0.1-0.55-0.35-1.19c-0.28-1.88-0.33-3.8-0.13-5.78c0.1-2.6,0.54-5.4,1.33-8.39c0.44-1.18,0.8-2.26,1.06-3.23
		c0.26-0.97,0.62-2.05,1.07-3.23c0.42-0.88,0.76-1.8,1.03-2.77c0.27-0.97,0.61-1.89,1.03-2.77c1.26-3.46,1.9-5.18,3.19-8.64
		c1.68-4.24,2.53-6.35,4.25-10.58c1.69-3.95,2.54-5.93,4.28-9.87c0.53-1.47,0.67-2.61,0.42-3.41c0.07-0.6-0.02-1.23-0.29-1.88
		c-0.42-2.21-1.9-3.74-4.43-4.58c-2.53-0.84-4.73-0.73-6.59,0.29c-3.15,1.66-5.52,3.73-7.14,6.18c-1.96,2.42-3.55,4.92-4.8,7.5
		c-1.25,2.57-2.4,5.19-3.47,7.86c-0.41,0.88-0.74,1.78-0.98,2.68c-1.61,6.01-5.34,13.29-8.82,18.39c-1.99,2.92-3.87,5.82-5.65,8.69
		c-1.78,2.87-3.61,5.79-5.5,8.74c-0.68,0.88-1.31,1.73-1.9,2.53c-0.59,0.81-1.22,1.66-1.89,2.54c-0.01,0.15-0.17,0.38-0.5,0.67
		c-0.42-1.09-0.69-2.11-0.8-3.03c-0.12-0.92-0.24-1.85-0.35-2.77c-0.03-2.91,0.27-6.11,0.9-9.6c0.37-1.05,0.61-2.11,0.75-3.18
		c0.13-1.06,0.4-2.14,0.75-3.18c0.39-1.17,0.76-2.45,1.15-3.73c0.39-1.28,0.77-2.52,1.16-3.73c0.74-1.8,1.46-3.6,2.13-5.4
		c0.67-1.79,1.39-3.52,2.15-5.16c0.58-1.34,1.15-2.65,1.73-3.92c0.58-1.26,1.24-2.49,1.99-3.67c0.58-1.19,1.07-2.3,1.48-3.35
		c0.41-1.04,0.56-2.18,0.47-3.42c0.12-1.83-0.38-3.4-1.49-4.7c-1.28-1.46-2.85-2.63-4.69-3.5c-1.85-0.87-3.7-1.73-5.56-2.59
		c-0.85-0.35-1.75-0.66-2.68-0.93c-0.94-0.27-1.84-0.58-2.69-0.92c-0.85-0.34-1.58-0.72-2.17-1.12c-0.59-0.4-1.23-0.77-1.92-1.1
		c-0.18-0.01-0.26-0.08-0.25-0.24c-0.61-0.57-0.91-0.86-1.52-1.43c1.15-3.33,1.75-6.98,1.79-10.96c0.04-3.98-0.96-7.3-3.04-9.96
		c-1.92-2.19-4.33-3.33-7.21-3.38c-0.36-0.01-0.81,0.03-1.35,0.09c-0.54,0.07-0.99,0.1-1.35,0.09c-4.52,0.86-7.04,3.23-7.59,7.05
		c-0.36,2.45,0.18,5.24,1.57,8.38c1.39,3.15,3.48,6.41,6.21,9.81c0.34,0.62,0.59,1.01,0.76,1.16c0,0.09,0,0.14,0,0.23
		c0.41,0.47,0.61,0.7,1.02,1.16c-1.09,3.04-2.16,5.93-3.21,8.67c-0.88,2.28-1.79,4.53-2.74,6.74c-0.94,2.21-1.84,3.93-2.68,5.14
		c-5.15,10.3-10.46,20.52-15.66,30.77c-1.53,3.02-3.12,6.08-4.76,9.19c-0.61,0.94-1.17,1.84-1.69,2.69
		c-0.52,0.86-1.08,1.76-1.67,2.7c0.01,0.15-0.14,0.39-0.44,0.71c-0.51-1.05-0.86-2.04-1.05-2.95c-0.19-0.91-0.39-1.82-0.58-2.73
		c-0.27-2.9-0.24-6.11,0.11-9.65c0.28-1.08,0.44-2.16,0.48-3.23c0.04-1.07,0.23-2.16,0.49-3.23c0.3-1.2,0.55-2.51,0.84-3.82
		c0.28-1.31,0.56-2.58,0.85-3.82c0.59-1.86,1.15-3.71,1.67-5.56c0.52-1.85,1.09-3.63,1.71-5.33c0.46-1.39,0.92-2.74,1.39-4.05
		c0.47-1.31,1.02-2.58,1.67-3.83c0.48-1.23,0.87-2.39,1.19-3.47c0.32-1.07,0.38-2.22,0.18-3.45c-0.04-1.83-0.67-3.35-1.89-4.55
		c-1.4-1.35-3.06-2.38-4.97-3.08c-1.92-0.71-3.84-1.41-5.76-2.1c-0.88-0.27-1.8-0.51-2.75-0.69c-0.96-0.19-1.88-0.41-2.76-0.68
		c-0.88-0.27-1.63-0.58-2.25-0.92c-0.62-0.35-1.3-0.66-2-0.93c-0.18,0.01-0.26-0.06-0.27-0.22c-0.65-0.52-0.98-0.77-1.64-1.29
		c0.85-3.41,1.14-7.11,0.83-11.07c-0.31-3.97-1.59-7.19-3.9-9.66c-2.1-2.02-4.61-2.94-7.48-2.74c-0.36,0.02-0.81,0.1-1.34,0.21
		c-0.53,0.12-0.98,0.18-1.34,0.21c-4.43,1.25-6.73,3.83-6.94,7.68c-0.14,2.47,0.63,5.21,2.29,8.21c1.66,3.01,4.02,6.08,7.04,9.24
		c0.39,0.59,0.67,0.95,0.86,1.09c0.01,0.09,0.01,0.14,0.02,0.23c0.45,0.43,0.67,0.64,1.12,1.07c-0.82,3.13-1.64,6.1-2.45,8.92
		c-0.69,2.35-1.4,4.67-2.15,6.95c-0.75,2.28-1.5,4.07-2.23,5.36c-0.7,1.75-1.38,3.53-2.06,5.36c-3.31,8.89-6.64,18.2-10.18,27.15
		c-1.22,3.67-2.54,6.97-3.95,9.91c-0.12,0.32-0.25,0.64-0.36,0.97c-0.12,0.33-0.32,0.66-0.6,0.99c-0.97,1.19-2.1,1.64-3.39,1.34
		c-1.3-0.3-2.19-1.11-2.67-2.44c-0.09-0.76-0.18-1.44-0.25-2.05c-0.07-0.61-0.08-1.3-0.02-2.08c0.01-1.23,0.02-2.43,0.04-3.59
		c0.02-1.16,0.11-2.36,0.28-3.62c0.03-1.08,0.07-2.13,0.11-3.13c0.04-1,0.15-2.06,0.35-3.16c0.12-1.71,0.29-3.39,0.5-5.03
		c0.21-1.64,0.47-3.33,0.76-5.06c0.22-0.95,0.48-1.94,0.77-2.98c0.29-1.04,0.55-2.03,0.78-2.98c1.01-4.27,1.53-6.41,2.59-10.68
		c0.23-0.95,0.51-1.94,0.83-2.98c0.31-1.03,0.62-2.04,0.83-2.97c0.25-1.07,0.42-2.12,0.58-3.06c0.16-0.94,0.35-1.96,0.58-3.06
		c0.18-3.25-1.19-5.73-4.16-7.4c-1.65-0.74-3.37-1.24-5.15-1.5c-2.85-0.43-5.11,0.54-6.73,2.9c-0.46,0.52-0.75,0.95-0.88,1.27
		c-1.24,1.24-2.68,1.51-4.34,0.81c-0.39-0.26-0.72-0.44-0.99-0.56c-0.28-0.11-0.61-0.3-1-0.56c-4.52-2.3-9.45-3.43-14.75-3.36
		c-3.01,0.02-5.92,0.66-8.71,1.93c-3.77,1.75-7.18,4.4-10.2,7.93c-4.23,5.48-6.93,11.04-8.19,16.62c-0.42,2.12-0.68,4.17-0.78,6.14
		c-0.1,1.97,0.16,3.99,0.76,6.05c0.19,0.9,0.42,1.83,0.71,2.78c0.28,0.95,0.63,1.87,0.95,2.73c0.43,1.13,0.93,2.27,1.56,3.3
		c0.63,1.04,1.39,2.09,2.27,3.15c0.48,0.68,1.06,1.34,1.77,1.97c0.71,0.64,1.51,1.17,2.42,1.61c1.48,0.79,2.98,1.35,4.51,1.67
		c4.67,1.27,8.62,0.3,12-2.93c1.12-1.13,2.15-2.31,3.09-3.56c0.94-1.24,1.88-2.56,2.82-3.96c0.93-1.39,1.85-2.66,2.75-3.81
		c0.9-1.15,1.76-2.32,2.57-3.53c0.14-0.18,0.25-0.27,0.33-0.28c0.08-0.01,0.19-0.11,0.33-0.28c0.02,0.15,0.08,0.26,0.17,0.32
		c0.09,0.06,0.15,0.17,0.17,0.32c0.02,1.24,0.07,2.43,0.16,3.57c0.09,1.14,0.14,2.34,0.16,3.57c0.17,4.46,0.56,8.66,1.14,12.59
		c0.32,2.12,1.2,4.3,2.65,6.55c1.89,3.12,4.21,5.56,6.96,7.33c1.38,0.89,2.76,1.58,4.15,2.09c1.39,0.51,2.95,0.73,4.65,0.66
		c1.85-0.08,3.52-0.52,4.99-1.3c1.47-0.79,2.73-2.08,3.79-3.9c1.29-2.6,2.48-5.23,3.56-7.88c3.57-8.74,6.18-17.98,9.48-26.9
		c3.59-9.68,7.28-19.34,11.87-28.6c1.76,0.66,3.47,1.4,5.14,2.23c1.67,0.83,3.29,1.59,4.85,2.28c-0.31,0.78-0.69,1.53-1.17,2.24
		c-0.47,0.71-0.86,1.46-1.16,2.24c-0.45,1.1-0.94,2.2-1.47,3.29c-0.53,1.1-1.01,2.28-1.45,3.53c-0.59,1.41-1.09,2.82-1.51,4.22
		c-0.42,1.4-0.83,2.81-1.24,4.21c-0.7,2.19-1.21,4.44-1.56,6.77c-0.34,2.32-0.6,4.64-0.77,6.95c-0.28,3.09-0.33,6.08-0.13,8.98
		c0.12,6.74,1.42,12.93,3.78,18.61c1.1,2.84,2.77,5.11,5.01,6.83c3.19,2.43,6.53,2.65,10.13,0.68c1.65-0.83,3.03-1.83,4.15-3.01
		c1.12-1.18,2.12-2.47,3.01-3.87c0.74-1.25,1.33-2.44,1.77-3.6c0.44-1.16,0.96-2.35,1.56-3.59c0.59-1.54,1.19-3.04,1.8-4.51
		c0.6-1.46,1.21-3.04,1.82-4.73c1.96-5.42,21.95-51.74,23.97-50.78c1.69,0.81,3.34,1.7,4.93,2.67c1.59,0.97,3.14,1.87,4.64,2.69
		c-0.37,0.75-0.82,1.46-1.35,2.13c-0.53,0.67-0.98,1.38-1.35,2.13c-0.54,1.05-1.13,2.11-1.75,3.15c-0.62,1.05-1.2,2.18-1.74,3.39
		c-0.71,1.36-1.33,2.71-1.86,4.08c-0.54,1.36-1.07,2.72-1.59,4.09c-0.88,2.12-1.58,4.32-2.12,6.61c-0.54,2.28-0.99,4.57-1.35,6.85
		c-0.54,3.05-0.83,6.03-0.88,8.93c-0.44,6.73,0.34,13.01,2.24,18.87c0.87,2.93,2.35,5.34,4.44,7.24c2.99,2.69,6.3,3.21,10.04,1.55
		c1.71-0.68,3.17-1.56,4.38-2.64c1.21-1.08,2.31-2.28,3.31-3.6c0.84-1.18,1.53-2.32,2.06-3.43c0.53-1.11,1.15-2.26,1.85-3.44
		c0.72-1.48,1.44-2.93,2.16-4.33c0.72-1.4,1.45-2.92,2.2-4.55c0.93-1.92,1.9-3.8,2.91-5.64c0.05-0.09,0.09-0.17,0.14-0.25
		c-0.08,1.07-0.16,2.12-0.23,3.12c-0.11,1.53-0.16,3.14-0.11,4.82c0.04,1.53,0.17,3.01,0.38,4.4c0.21,1.4,0.41,2.88,0.61,4.42
		c0.35,1.56,0.79,3.02,1.3,4.36c0.52,1.34,1.34,2.68,2.47,4.01c2.79,3.62,6.35,4.65,10.81,3.14c3.35-1.17,6.11-3.16,8.3-5.97
		c0.72-0.84,1.33-1.72,1.83-2.66c0.5-0.94,1.04-1.91,1.63-2.91c0.78-1.29,1.53-2.61,2.25-3.99c0.72-1.37,1.56-2.76,2.54-4.18
		c0.93-1.68,1.86-3.29,2.79-4.85c-0.08,2.74-0.3,6.15,0.21,9.42c0.15,2.49,0.71,4.88,1.66,7.18c0.89,2.76,2.2,5.18,3.93,7.3
		c2.14,2.49,4.91,4.16,8.35,5.04c0.89,0.3,1.83,0.46,2.83,0.48c1,0.02,2.02-0.02,2.94-0.18c0.78-0.14,1.6-0.3,2.4-0.38
		c0.79-0.09,1.61-0.29,2.44-0.6c3.28-0.94,6.28-2.62,8.92-5.05c2.48-2.28,4.58-4.52,6.29-6.66c1.09-1.49,2.1-2.91,3.02-4.28
		c0.92-1.36,1.78-2.82,2.59-4.37c0.31-0.71,0.88-1.14,1.73-1.27c0.31,0.07,0.55,0.08,0.73,0.04c0.17-0.04,0.41-0.03,0.73,0.04
		c1-0.09,1.95-0.35,2.87-0.77c0.91-0.42,1.84-0.92,2.79-1.48c12.67-7.56,19.39-22.75,29.71-33.23c1.46,1.18,2.86,2.42,4.18,3.73
		c1.33,1.31,2.62,2.54,3.89,3.69c-0.53,0.65-1.13,1.23-1.8,1.75c-0.67,0.52-1.27,1.11-1.79,1.76c-0.77,0.9-1.57,1.78-2.41,2.66
		c-0.84,0.88-1.66,1.84-2.45,2.89c-0.99,1.15-1.9,2.33-2.73,3.53c-0.83,1.2-1.65,2.4-2.47,3.6c-1.33,1.86-2.5,3.84-3.54,5.93
		c-1.03,2.1-1.98,4.21-2.84,6.35c-1.2,2.84-2.14,5.67-2.83,8.49c-1.9,6.44-2.52,12.74-1.95,18.88c0.21,3.05,1.13,5.74,2.75,8.07
		c2.32,3.31,5.43,4.58,9.42,3.83c1.81-0.27,3.42-0.79,4.82-1.56c1.41-0.77,2.74-1.69,3.99-2.74c1.07-0.95,1.98-1.9,2.75-2.87
		c0.76-0.96,1.6-1.93,2.54-2.92c1.02-1.28,2.03-2.52,3.04-3.72c1.01-1.2,2.05-2.51,3.14-3.92c1.32-1.66,2.68-3.26,4.07-4.82
		c1.39-1.55,2.74-3.08,4.05-4.58c0.62-0.92,1.3-1.74,2.04-2.46c0.74-0.72,1.39-1.47,1.98-2.24c1.41-1.78,2.79-3.41,4.13-4.89
		c0.45-0.33,0.51-0.79,0.19-1.38C520.33,283.96,519.54,283.21,518.22,282.45z M232.75,235.38c-0.24,0.81-0.51,1.58-0.84,2.32
		c-0.33,0.74-0.69,1.53-1.08,2.35c-1.48,2.84-2.97,5.73-4.48,8.66c-1.5,2.94-3.21,5.8-5.11,8.58c-1.04,1.88-2.13,3.64-3.27,5.31
		c-1.14,1.67-2.31,3.31-3.52,4.92c-0.27,0.36-0.84,0.93-1.69,1.7c-0.56,0.57-1.28,0.73-2.14,0.51c-0.86-0.23-1.52-0.61-1.94-1.15
		c-0.3-0.72-0.54-1.38-0.73-1.97c-0.19-0.58-0.2-1.28-0.01-2.1c0.02-0.78,0-1.63-0.09-2.55c-0.08-0.91-0.03-1.78,0.16-2.59
		c0.24-2.38,0.71-4.71,1.4-7.01c0.7-2.3,1.54-4.55,2.53-6.74c2.85-5.31,6.42-9.86,10.71-13.62c1.07-0.94,2.12-1.48,3.14-1.64
		c1.4,0.1,2.65,0.3,3.74,0.61c1.08,0.31,2.05,1.02,2.9,2.14C232.84,233.52,232.94,234.28,232.75,235.38z M278.33,212.27
		c-0.96-1.16-1.98-2.66-3.09-4.5c-1.1-1.84-1.68-3.06-1.73-3.67c-0.47-1.5-0.36-2.51,0.32-3.01c0.33-0.33,0.59-0.5,0.77-0.51
		c0.71-0.05,1.36,0.21,1.93,0.79c0.38,0.28,0.93,1.24,1.66,2.88C278.93,205.87,278.96,208.54,278.33,212.27z M336.16,210.97
		c-0.85-1.24-1.75-2.83-2.69-4.76c-0.94-1.93-1.41-3.2-1.4-3.81c-0.33-1.53-0.14-2.53,0.58-2.98c0.36-0.3,0.63-0.45,0.81-0.44
		c0.71,0.01,1.33,0.33,1.86,0.95c0.35,0.32,0.82,1.32,1.41,3.01C337.31,204.65,337.11,207.32,336.16,210.97z M442.48,280.86
		c-0.55,1.14-1.2,2.25-1.98,3.34c-0.78,1.09-1.58,2.23-2.42,3.26c-0.77,0.93-1.63,1.82-2.42,2.68c-0.8,0.86-1.66,1.66-2.59,2.42
		c-2.25,1.91-4.61,3.18-7.08,3.83c-0.64,0.04-1.24,0.09-1.8,0.15c-0.56,0.06-1.15,0.03-1.76-0.07c-1.53-0.26-2.53-0.97-2.98-2.13
		c-0.45-1.16-0.68-2.56-0.8-4.08c-0.09-1.23-0.12-2.58,0.01-3.95c0.13-1.37,0.3-2.74,0.51-4.1c0.32-1.03,0.55-2,0.69-2.91
		c0.14-0.91,0.37-1.87,0.69-2.9c0.32-1.03,0.61-2.07,0.85-3.11c0.24-1.04,0.61-2.07,1.1-3.07c1-2.62,1.51-3.93,2.52-6.55
		c0.52-1.15,1.02-2.23,1.52-3.23c0.5-0.99,1-2.07,1.53-3.23c0.28-0.73,0.88-1.79,1.79-3.18c0.02-0.15,0.13-0.29,0.32-0.41
		c-0.03,0.15,0.03,0.32,0.17,0.5c0.12,1.26,0.23,2.41,0.31,3.43c0.08,1.02,0.27,2.11,0.58,3.24c0.99,4.99,2.8,9.35,5.41,13.1
		c0.79,1.08,1.66,2.15,2.62,3.19c0.95,1.04,2,1.99,3.15,2.84C442.67,280.28,442.69,280.59,442.48,280.86z M450.33,252.88
		c-0.08,0.84-0.12,1.65-0.1,2.44c-0.09,2.17-0.33,4.22-0.72,6.17c-0.39,1.95-0.88,3.95-1.45,6.02c-0.12,0.6-0.26,1.12-0.43,1.55
		c-0.17,0.43-0.31,0.95-0.43,1.55c-0.1-0.02-0.14-0.03-0.24-0.05c-0.55-0.58-1.19-1.57-1.92-2.96c-1.7-3.3-2.81-7.17-3.34-11.63
		c-0.16-0.96-0.32-1.96-0.46-3c-0.15-1.04-0.17-2.13-0.18-3.18c0-0.76-0.01-1.56,0.04-2.32c0.06-0.76,0.32-1.49,0.79-2.18
		c0.14-0.75,0.5-1.3,1.08-1.66c0.28-0.57,1-0.74,2.17-0.52c0.83,0.16,1.46,0.48,1.89,0.96c0.43,0.47,0.85,0.98,1.26,1.53
		c0.55,0.73,0.96,1.52,1.22,2.35c0.26,0.83,0.49,1.66,0.67,2.47C450.36,251.21,450.41,252.04,450.33,252.88z M489.72,232.32
		c-0.54-1.4-1.04-3.15-1.51-5.24c-0.47-2.09-0.63-3.43-0.48-4.02c0.03-1.57,0.45-2.49,1.25-2.75c0.42-0.2,0.72-0.29,0.89-0.24
		c0.69,0.18,1.22,0.63,1.58,1.35c0.27,0.39,0.49,1.47,0.67,3.25C492.3,226.45,491.49,229,489.72,232.32z M538.66,299.33
		c-0.26,0.72-0.74,1.59-1.45,2.62c0.5-0.46,0.79-0.76,0.84-0.91c-0.06,0.17-0.09,0.26-0.15,0.43c-1.12,1.69-2.36,3.26-3.72,4.71
		c-1.36,1.44-2.91,2.74-4.65,3.89c-1.58,1.08-2.37,1.62-3.94,2.7c-0.89,0.65-1.66,0.67-2.3,0.15c-0.75-0.61-1.22-1.32-1.28-2.15
		c-0.06-0.83,0.33-1.5,1.17-2.01c2.19-1.46,3.29-2.18,5.51-3.61c0.6-0.27,0.82-0.67,0.67-1.22c-1.96-0.71-3.36-1.97-4.19-3.79
		c-0.83-1.82-0.92-3.75-0.25-5.77c0.67-2.02,1.88-3.46,3.63-4.3c1.75-0.84,3.64-0.9,5.65-0.17c2,0.72,3.44,1.98,4.28,3.76
		C539.32,295.42,539.38,297.32,538.66,299.33z M449.74,147.49l-29.49-65.34l17.11-39.62l35.2,24.32l5.09,72.42L449.74,147.49z
		 M112.13,139.26l5.09-72.42l35.2-24.32l17.11,39.62l-29.49,65.34L112.13,139.26z"/>
	<path class="st2" d="M179.53,165.74c-2.51,0-4.57-2.03-4.59-4.54c-0.03-2.54,2.01-4.62,4.54-4.64l12.43-0.16
		c3.84-0.05,7.65-0.11,12.81-0.16c0.02,0,0.03,0,0.05,0c2.52,0,4.57,2.03,4.59,4.55c0.03,2.54-2.01,4.61-4.55,4.64
		c-5.15,0.05-8.95,0.11-12.78,0.16l-12.46,0.16C179.56,165.74,179.55,165.74,179.53,165.74z M233.4,97.83
		c1.69-1.89,1.52-4.8-0.37-6.49L210.1,70.9c-1.89-1.69-4.8-1.52-6.49,0.37c-1.69,1.89-1.52,4.8,0.37,6.49l22.93,20.44
		c0.88,0.78,1.97,1.16,3.06,1.16C231.23,99.37,232.49,98.85,233.4,97.83z M419.74,161.2c0.03-2.54-2.01-4.62-4.54-4.64l-12.71-0.16
		c-3.93-0.05-7.85-0.11-13.11-0.16c-2.51,0.11-4.61,2.01-4.64,4.55c-0.03,2.54,2.01,4.61,4.55,4.64c5.25,0.05,9.15,0.11,13.07,0.16
		l12.74,0.16c0.02,0,0.03,0,0.05,0C417.66,165.74,419.72,163.72,419.74,161.2z M369.35,97.8l22.47-20.04
		c1.89-1.69,2.06-4.59,0.37-6.49c-1.69-1.89-4.59-2.06-6.49-0.37l-22.47,20.04c-1.89,1.69-2.06,4.59-0.37,6.49
		c0.91,1.02,2.17,1.54,3.43,1.54C367.39,98.96,368.48,98.58,369.35,97.8z M299.6,84.33c2.53-0.11,4.5-2.26,4.38-4.8l-1.47-32.63
		c-0.11-2.54-2.38-4.47-4.8-4.38c-2.53,0.11-4.5,2.26-4.38,4.8l1.47,32.63c0.11,2.47,2.14,4.39,4.59,4.39
		C299.46,84.34,299.53,84.34,299.6,84.33z M204.04,126.6c1.09-2.29,0.12-5.03-2.17-6.12l-10.55-5.02c-2.29-1.09-5.03-0.12-6.12,2.18
		c-1.09,2.29-0.11,5.03,2.18,6.12l10.55,5.02c0.64,0.3,1.31,0.45,1.97,0.45C201.61,129.22,203.26,128.25,204.04,126.6z
		 M262.38,78.47c2.36-0.94,3.51-3.61,2.57-5.97l-4.48-11.27c-0.94-2.36-3.59-3.51-5.97-2.57c-2.36,0.94-3.51,3.61-2.57,5.97
		l4.48,11.27c0.72,1.8,2.44,2.9,4.27,2.9C261.25,78.8,261.82,78.69,262.38,78.47z M341.25,75.17l3.28-14.66
		c0.55-2.48-1.01-4.93-3.48-5.49c-2.47-0.53-4.93,1.01-5.49,3.48l-3.28,14.66c-0.56,2.48,1,4.93,3.48,5.49
		c0.34,0.08,0.68,0.11,1.01,0.11C338.88,78.76,340.78,77.31,341.25,75.17z M396.18,127.12l8.73-4.31c2.27-1.12,3.21-3.88,2.08-6.15
		c-1.12-2.27-3.87-3.21-6.15-2.08l-8.73,4.31c-2.27,1.12-3.21,3.88-2.08,6.15c0.8,1.62,2.43,2.56,4.12,2.56
		C394.83,127.59,395.53,127.44,396.18,127.12z M256.66,144.54c-7.92-3.69-10.36,0.76-5.04-5.49c0.61-0.79,0.91-1.18,1.53-1.97
		c3.99-5.71,8.33-13.83,7.57-20.38c-0.02-0.26-0.04-0.39-0.06-0.64c-0.53-3.98-1.26-6.66-5.3-9.42c-7.52-5.06-10.02-3.4-18.66-1.97
		c-5.76,0.96-10.9-0.65-9.95,5.09c0.72,4.34,0.97,7.96,1.35,12.23c0.59,5.98,0.9,8.97,1.52,14.95c0.59,5.41,1.52,10.89,2.15,16.43
		c0.54,3.16,0.81,4.75,1.35,7.91c0.65,2.91,0.76,6.33,1.4,9.08c0.97,4.14,1.9,7.83,2.47,11.93c0.31,2.24,0,4.97,2.31,6.07
		c3.4,1.61,4.76-0.39,5.8-3.01c5.32-0.68,8.38,0.15,13.31-2.92c3.84-2.58,3.54-4.23,5.54-7.51c2.49-4.23,3.05-8.83,2.91-13.45
		C266.68,155.07,263.75,147.79,256.66,144.54z M259.3,160.79c0.39,4.43-1.55,13.36-6.02,15.92c-0.95,0.49-4.87,1.59-5.37,1.13
		c-1.34-1.27-3.22-18.76-3.48-21.73c-0.16-1.15-0.94-3.41,0.34-4.21c0.71-0.47,1.15-0.66,2.05-0.89
		C255.8,148.43,258.75,154.59,259.3,160.79z M242.07,111.2c6.77-1.67,10.1,0.55,10.8,5.52c0.79,5.58-4.51,14.2-8.54,19.09
		c-1.93,2.43-2.04,2.71-2.4,0.15c-0.03-0.21-0.04-0.31-0.07-0.51c-1.1-6.77-0.74-13.72-1.82-20.36
		C239.78,113.16,239.09,111.93,242.07,111.2z M295.22,173.33c-3.92-1.63-8.19,0.81-11.54,0.16c-1.14-2.93-1.05-9.58-0.71-12.78
		c0.38-3.6,0.21-5.44,0.06-9.05c-0.12-2.84-1.01-5.15,2.52-6.42c2.61-0.86,13.19,0.15,10.81-3.71c-3.33-5.4-11.52-2.87-12.33-3.36
		c-0.65-0.36,1.23-18.91,1.32-21.24c0.29-5.95-0.3-5.92,6.67-6.36c6.82-0.43,5.35-5.51,0.73-6.6c-2.91-0.73-11.76,0.43-14.61,1.32
		c-4.51,1.74-5.25,8.66-5.2,12.15c-0.19,4.93-0.1,9.95-0.2,14.77c-0.06,2.92-0.1,5.83-0.06,8.68c-0.06,6.09-0.11,12.04,0.01,18.12
		c0.01,0.21,0.02,0.31,0.04,0.51c0.11,3.75,0.62,7.39,1.07,11.07c0.28,2.29,0.2,6.85,1.61,8.84c3.4,3.95,8.04,1.53,12.55,0.63
		c2.25-0.58,3.68-0.22,5.66-0.51C298.42,178.83,298.71,174.84,295.22,173.33z M361.3,172.77c1.45-11.95,3.03-23.92,4.66-35.81
		c0.67-4.86,1.61-9.58,2.07-14.35c0.45-2.68,1.23-7.68-0.23-9.96c-1.5-2.37-8.21-4.87-11.49-3.42c-2.01,0.94-5.63,7.96-6.89,10.04
		c-4.15,6.58-7.27,12.65-10.52,19.5c-2.62,5.35-2.3,4.34-8.16,4.53c-4.18,0.13-4.23,4.39-1.45,6.12c2.62,1.62,3.67,0.4,2.83,2.93
		c-2.68,7.57-6.71,15.06-9.28,22.68c-1.25,3.29-2.85,6.41,1.55,8c4.01,1.3,5.24-1.57,6.07-4.36c1.49-5.33,3.17-10.64,5.36-15.9
		c0.79-1.88,5.14-11.14,6.02-12.04c0.81-0.82,9.18,0.99,9.45,1.28c0.44,0.18,0,6.64,0.03,7.56c-0.11,4.03-0.61,9.7-0.25,13.39
		c0.19,2.76,1.68,6.33,5.65,5.31C360.05,177.42,360.96,175.6,361.3,172.77z M352.76,143.58c-0.7,1.61-3.63,1.14-5.18,0.97
		c-1.85-0.33-2.32-0.37-1.84-1.75c0.93-2.51,7.75-15.29,9.43-16.65C355.88,128.19,353.58,141.07,352.76,143.58z M247.34,354.99
		c-1.13-5.68-1.06-11.5-3.2-16.91c-1.14-2.63-2.26-6.14-5.83-6.31c-3.24-0.15-5.37,2.56-3.75,4.85c1.25,1.65,1.83,4.46,2.47,6.45
		c1.09,3.44,1.22,4.8,1.7,8.3c0.97,7.14,1.86,13.6,2.23,20.8c0.01,0.16,0.02,0.24,0.04,0.4c0.07,5.45-0.33,11.78-0.67,17.25
		c-0.27,4.38,0,7.09-2.47,0.93c-2.01-4.71-3.03-7.06-5.1-11.76c-4.28-10.06-8.7-19.94-13.6-29.73c-1.8-3.61-2.71-5.41-4.54-9
		c-1.63-2.94-3.8-7.45-7.42-8.45c-1.97-0.55-9.58,0.13-9.38,2.9c0.2,2.78,0.72,5.54,0.81,8.26c0.09,2.45,0.48,4.54,0.9,6.73
		c0.71,3.74,0.45,7.76,1.07,11.66c0.69,5.12,1.03,7.67,1.72,12.79c0.53,4.32,1.46,8.29,2.12,12.45c0.59,3.76,1.41,7.55,1.9,11.11
		c0.57,4.09,1.99,8.4,3.24,12.55c1.33,4.42,4.13,3.33,7.81,3.09c5.04-0.32,3.78-5.73,3.19-9.08c-0.55-2.83-0.82-4.25-1.38-7.08
		c-1.1-6.02-2.68-12.51-3.37-18.46c-0.8-6.88-1.87-14.69-2.07-21.78c0.04-0.83-0.22-1.62,0.37-0.6c2.57,4.45,4.49,8.86,6.43,13.68
		c2.34,5.59,4.71,10.64,7.08,16.1c2.1,4.4,3.61,8.88,5.5,13.31c1.15,2.74,1.64,5.96,4.56,7.43c1.75,0.91,4.57,0.22,6.3-0.49
		c2.77-1.35,3.01-8.18,3.48-10.94c0.66-3.74,0.4-6.98,0.65-10.82c0.51-4.27,0.66-7.45,0.5-11.62
		C248.41,367.21,248.44,360.55,247.34,354.99z M289.54,353.76c-0.81-7.72-1.42-16.66-6.91-22.74c-2.41-2.67-6.35-4.23-9.7-2.94
		c-2.6,1-4.34,3.44-5.77,5.83c-7.24,12.18-10.03,27-10.14,41.06c-0.02,3.81-0.12,8.45,0.56,12.08c0.24,1.35,0.7,1.86,0.9,2.8
		c0.39,1.6,0.5,3.1,1.31,4.81c1.19,3.19,3.15,7.69,5.35,10.01c3.19,2.81,9.07,3.47,12.84,1.7c2.69-1.19,5.17-6.01,6.63-8.49
		c2.13-3.58,1.96-4.32,3.18-8.08c2.63-8.08,3.03-16.83,2.6-25.45C290.22,360.78,289.9,357.23,289.54,353.76z M282.46,373.84
		c-0.81,6.86-0.93,13.63-4.09,20.01c-1.44,2.9-2.99,5.81-6.56,6.38c-2.98-4.48-2.74-9.04-2.92-14c-0.09-2.41-0.22-5.05-0.09-7.47
		c0.17-3.09,0.26-6.41,0.84-9.56c0.9-4.32,1.79-8.65,2.86-12.93c0.63-2.51,2.02-13.14,6.54-8.77c1.02,0.99,1.46,2.41,1.82,3.79
		c1.26,4.84,1.95,9.85,2.01,14.85C282.9,368.72,282.76,371.29,282.46,373.84z M335.3,329.4c-0.18-4.22-6.44-4.78-10.09-5.27
		c-1.28-0.13-2.55-0.26-3.96-0.54c-5.08-0.62-11.08-1.49-16.25-2.41c-3.45-0.61-11.62-2.92-10.54,2.34c0.57,3.39,3.3,4.25,6.73,4.71
		c1.09,0.19,4.7,0.56,5.29,0.8c1.39,0.25-1.53,9.24-1.75,10.45c-2.02,7.64-2.75,15.1-4.46,22.79c-2.47,11.14-5.35,22.22-6.98,33.65
		c-0.32,2.56-1.26,5.43-0.12,7.71c2.58,3.65,7.92,4.41,8.51-0.73c0.47-3.09,0.83-5.32,1.63-8.26c0.77-2.83,1.05-5.33,1.75-8.1
		c1.6-6.61,3.74-13.3,5.44-19.83c1.56-6,3.54-12.19,5.06-18.23c0.86-3.42,2.53-14.87,3.58-16.87c0.6-1.4,9.04,0.65,10.58,0.99
		C332.67,333.11,335.59,332.39,335.3,329.4z M388.2,398.69c1.42-12.56,2.98-25.14,4.59-37.63c0.66-5.11,1.57-10.06,2.04-15.08
		c0.44-2.82,1.2-8.07-0.11-10.46c-1.36-2.48-7.49-5.08-10.54-3.58c-1.87,0.98-5.34,8.34-6.54,10.51
		c-3.97,6.89-7.01,13.23-10.22,20.38c-2.58,5.58-2.28,4.54-7.78,4.62c-3.93,0.06-4.11,4.53-1.53,6.4c2.43,1.75,3.46,0.5,2.59,3.14
		c-2.73,7.9-6.79,15.69-9.48,23.62c-1.3,3.42-2.95,6.67,1.27,8.44c3.84,1.46,5.11-1.53,5.98-4.44c1.57-5.57,3.3-11.12,5.5-16.61
		c0.79-1.96,5.11-11.63,5.96-12.56c0.78-0.86,8.66,1.11,8.91,1.42c0.42,0.19-0.08,6.98-0.07,7.94c-0.15,4.23-0.69,10.19-0.39,14.07
		c0.16,2.9,1.57,6.66,5.39,5.59C387,403.58,387.88,401.66,388.2,398.69z M380.35,368.02c-0.68,1.69-3.43,1.18-4.89,0.99
		c-1.73-0.36-2.18-0.41-1.69-1.86c0.92-2.62,7.52-16,9.1-17.43C383.49,351.86,381.16,365.39,380.35,368.02z M188.94,373.27
		c0.92,3.69-1.33,7.43-5.02,8.35c-7.55,1.88-14.49,3.76-20.7,5.53l-6.85,24.97c-0.84,3.06-3.62,5.07-6.64,5.07
		c-0.6,0-1.22-0.08-1.83-0.25c-3.67-1.01-5.83-4.8-4.82-8.47l4.57-16.65c-5.8,1.83-10.23,3.34-13.06,4.32l-4.25,20.25
		c-0.68,3.25-3.55,5.48-6.74,5.48c-0.47,0-0.94-0.05-1.42-0.15c-3.72-0.78-6.11-4.43-5.33-8.16l4.22-20.1l-15.11-13.37
		c-2.85-2.52-3.12-6.88-0.59-9.73c2.53-2.85,6.88-3.12,9.73-0.59l15.05,13.32c2.86-1,7.22-2.48,12.86-4.27l-10.72-9.36
		c-2.87-2.5-3.16-6.86-0.65-9.72c2.5-2.86,6.86-3.16,9.72-0.65l17.23,15.05c6.53-1.87,13.91-3.87,21.99-5.89
		C184.27,367.34,188.02,369.58,188.94,373.27z M486.09,389.6l-24.89,12.87c-1.01,0.52-2.09,0.77-3.16,0.77
		c-2.5,0-4.9-1.36-6.13-3.73c-1.75-3.38-0.42-7.54,2.96-9.29l5.67-2.93c-8.25-2.62-24.89-7.51-47.25-12.02
		c-3.73-0.75-6.14-4.39-5.39-8.12c0.75-3.73,4.39-6.15,8.12-5.39c21.4,4.32,37.53,8.9,46.63,11.74l-3.3-6.62
		c-1.7-3.41-0.32-7.54,3.09-9.24c3.41-1.7,7.54-0.32,9.24,3.09L486.09,389.6z M437.36,157.54L498,139.66l6.49,18.41l-62.6,11.99
		L437.36,157.54z M147.89,170.06l-62.6-11.99l6.49-18.41l60.64,17.88L147.89,170.06z"/>
	<path class="st1" d="M202.79,467c1.65-0.28,3.32-0.62,4.98-1c3.81-0.72,7.06-1.88,9.77-3.45c0.35-0.33,0.68-0.49,1-0.46
		c0.79-2.28,0.37-3.98-1.26-5.12c-1.63-1.13-2.91-1.92-3.85-2.37c-0.17,0.17-0.3,0.24-0.38,0.24c-0.08-0.01-0.21,0.07-0.38,0.24
		c-1.51,0.77-3.05,1.35-4.61,1.74c-1.57,0.39-3.1,0.78-4.59,1.18c-0.99,0.26-1.94,0.39-2.83,0.39c-0.9,0-1.84,0.12-2.83,0.38
		c-1.64,0.19-3.24,0.29-4.79,0.29c-1.55,0.01-3.14,0.01-4.77,0c-0.39-0.05-0.58-0.07-0.97-0.11c-0.54-1.33-1-2.56-1.39-3.69
		c-0.39-1.13-0.86-2.18-1.42-3.16c-1.47-3.62-3.82-6.17-7.07-7.68c-0.77-0.46-1.62-0.8-2.57-1.02c-0.95-0.21-1.9-0.39-2.86-0.52
		c-3.17-0.61-6.18,0.42-9.07,3.08c-1.65,1.76-2.58,3.62-2.8,5.58c-0.47,2.84,0.21,5.57,2.07,8.2c1.99,2.83,4.84,4.77,8.52,5.81
		c3.18,0.75,4.77,1.12,7.96,1.85c0.65,0.08,0.95,0.39,0.9,0.93c0.18,1.65,0.27,3.29,0.29,4.93c0.01,1.63,0.08,3.32,0.05,4.9
		c-0.07,3.66-0.51,7.45-1,11.02c-0.16,1.79-0.36,3.53-0.6,5.22c-0.24,1.69-0.53,3.42-0.85,5.19c-0.23,0.7-0.41,1.76-0.55,3.19
		c-0.47,1.39-0.8,2.71-1,3.95c-0.2,1.24-0.45,2.57-0.75,3.98c-0.47,1.39-0.8,2.66-0.99,3.81c-0.19,1.16-0.52,2.43-0.99,3.81
		c-0.53,1.93-1.12,3.71-1.79,5.34c-0.67,1.63-1.35,3.4-2.05,5.31c-1.18,3.29-2.5,6.2-3.96,8.73c-0.4,0.49-0.84,1.02-1.33,1.59
		c-0.49,0.57-1.01,1-1.56,1.29c-1.33,1.09-2.55,1.1-3.66,0.04c-0.81-0.66-1.5-1.57-2.07-2.74c-1.05-1.6-1.87-3.72-2.46-6.34
		c-0.32-1.86-0.7-3.64-1.12-5.33c-0.42-1.7-0.83-3.41-1.13-5.07c-0.33-1.83-0.6-3.63-0.84-5.3c-0.25-1.67-0.52-3.44-0.83-5.3
		c-0.07-0.92-0.14-1.84-0.21-2.76c-0.07-0.92-0.14-1.83-0.2-2.76c-0.18-1.48-0.3-3-0.38-4.55c-0.08-1.56-0.15-3.23-0.34-4.82
		c-0.15-1.26-0.31-2.54-0.34-3.73c-0.03-1.19-0.05-2.51-0.05-3.96c-0.13-1.83-0.21-3.67-0.25-5.49c-0.04-1.82-0.12-3.74-0.22-5.76
		c-0.16-1.48-0.2-2.94-0.12-4.38c0.08-1.44,0.04-2.9-0.12-4.38c0.08-0.71,0.11-1.35,0.1-1.89c-0.02-0.55,0-1.09,0.07-1.63
		c-0.03-2.3-0.04-3.44-0.07-5.74c0.08-0.71-0.25-1.4-0.99-2.07c-1.37-0.94-2.83-1.88-4.16-2.31c-2.46-0.8-5.77-0.51-9.17,0.36
		c-1.85,0.22-3.66,0.9-5.46,2.04c-1.6,0.81-2.93,2.11-4.01,3.92c-0.52,1.37-1.14,2.62-1.88,3.76c-0.74,1.14-1.44,2.29-2.1,3.44
		c-1.77,3.14-3.66,6.16-5.67,9.06c-2.01,2.9-4.15,5.77-6.43,8.61c-0.44,0.65-0.94,1.23-1.53,1.75c-0.59,0.53-1.1,1.11-1.53,1.75
		c-0.1-0.02-0.15-0.03-0.25-0.05c0.06-0.43,0.09-0.64,0.16-1.06c0.4-1.57,0.79-3.08,1.18-4.56c0.38-1.48,0.85-3.01,1.42-4.51
		c0.51-1.34,0.98-2.64,1.32-3.85c0.34-1.21,0.69-2.42,1.03-3.63c0.61-1.89,1.17-3.7,1.67-5.43c0.5-1.73,1.03-3.59,1.66-5.43
		c0.52-1.52,1.03-3.09,1.42-4.66c0.39-1.57,0.85-3.03,1.37-4.39c0.1-0.71,0.23-1.33,0.39-1.84c0.15-0.52,0.27-1.04,0.35-1.58
		c0.36-1.39,0.66-2.65,0.91-3.79c0.24-1.14,0.55-2.4,0.91-3.8c0.25-1.77-0.32-2.89-1.73-3.35c-0.77-0.33-1.55-0.62-2.33-0.87
		c-0.78-0.24-1.56-0.54-2.32-0.87c-3.39-1.41-6.88-2.12-10.48-2.16c-0.82,0.01-1.61,0.12-2.39,0.32c-0.77,0.2-1.58,0.39-2.43,0.57
		c-0.88,0.36-1.47,1.07-1.81,2.08c-0.29,0.85-0.61,1.75-0.93,2.68c-0.32,0.94-0.63,1.84-0.93,2.68c-0.55,1.35-0.98,2.72-1.29,4.12
		c-0.31,1.4-0.74,2.77-1.29,4.12c-0.45,1.74-0.89,3.43-1.33,5.07c-0.44,1.65-0.87,3.35-1.33,5.07c-0.41,1.55-0.72,3.1-0.88,4.62
		c-0.16,1.52-0.38,3.08-0.64,4.67c-0.51,2.09-0.83,4.26-0.94,6.53c-0.12,2.27-0.18,4.5-0.2,6.69c0.01,3.12,0.42,5.87,1.23,8.24
		c1.41,5.08,4.34,8.46,8.74,10.1c3.79,1.15,7.17,1.01,10.13-0.42c1.29-0.65,2.48-1.43,3.55-2.32c1.07-0.89,2.1-1.87,3.11-2.96
		c2.37-2.28,4.54-4.75,6.52-7.39c1.97-2.64,3.81-5.36,5.54-8.15c0.42-0.65,0.83-1.22,1.23-1.69c-0.05,0.36-0.04,0.59,0.03,0.69
		c0.07,0.1,0.09,0.25,0.07,0.42c-0.03,1.46-0.08,2.81-0.16,4.07c-0.08,1.26-0.13,2.53-0.12,3.81c0.14,1.48,0.16,2.94,0.06,4.38
		c-0.1,1.44-0.06,2.92,0.06,4.38c0.14,1.63,0.21,3.28,0.26,4.83c0.05,1.56,0.15,3.08,0.31,4.56c0.27,1.87,0.51,3.69,0.71,5.45
		c0.2,1.76,0.44,3.59,0.72,5.45c0.53,2.64,1.04,5.1,1.54,7.36c0.49,2.27,1.09,4.7,1.85,7.14c0.71,2.29,1.62,4.55,2.58,6.71
		c0.96,2.16,2.28,4.28,3.97,6.37c1.23,1.47,2.44,2.79,3.62,3.98c1.18,1.18,2.69,2.19,4.54,3.01c1.52,0.56,2.28,0.83,3.81,1.38
		c1.33,0.74,2.79,1.04,4.39,0.91c3-0.12,6.27-0.6,9.39-1.7c3.03-1.07,5.91-3.21,8.44-5.98c1.77-2.13,3.27-4.39,4.53-6.78
		c1.25-2.39,2.49-4.9,3.51-7.45c1.14-2.86,2.1-5.86,2.95-8.75c0.85-2.89,1.65-5.82,2.42-8.81c0.55-2.87,0.82-4.3,1.37-7.17
		c0.51-2.11,0.95-4.24,1.29-6.37c0.34-2.13,0.62-4.36,0.81-6.69c0.18-2.15,0.36-4.3,0.54-6.46c0.18-2.15,0.22-4.36,0.05-6.51
		c-0.15-1.8-0.27-3.65-0.28-5.46c-0.01-1.81-0.11-3.63-0.28-5.46c0.03-0.32,0.04-0.48,0.07-0.81c0.17-0.16,0.51-0.21,1-0.15
		c1.32-0.03,2.63-0.06,3.95-0.1c1.31-0.03,2.64-0.16,3.96-0.38C199.39,467.52,201.13,467.29,202.79,467z M177.83,457.77
		c-1.31,0.02-2.75-0.35-4.3-1.1c-0.79-0.28-1.79-0.87-3.01-1.76c-0.31-0.22-0.75-0.73-1.31-1.54c-0.43-0.6-0.22-1.12,0.64-1.54
		c0.2-0.08,0.31-0.12,0.51-0.2c1.78,0.06,3.33,0.54,4.62,1.43c1.29,0.89,2.25,2.38,2.88,4.45
		C177.84,457.61,177.84,457.67,177.83,457.77z M374.1,438.75c-0.21-2.93,0.6-5.35,2.42-7.27c1.81-1.91,4.03-2.98,6.66-3.19
		c2.63-0.21,5.03,0.52,7.21,2.19c2.18,1.68,3.24,3.83,3.16,6.48c0.54,2.59-0.07,4.98-1.86,7.15c-1.79,2.17-4.12,3.38-6.96,3.6
		c-2.68,0.21-5.08-0.53-7.19-2.24C375.44,443.77,374.3,441.52,374.1,438.75z M509.09,475.36c-0.6-0.51-1.66-0.78-3.18-0.81
		c-0.36-0.09-0.73,0.14-1.13,0.68c-0.64,2.01-1.24,3.97-1.82,5.88c-0.58,1.91-1.27,3.89-2.09,5.92c-1.26,3.37-2.45,6.69-3.58,9.94
		c-1.13,3.26-2.35,6.57-3.66,9.94c-0.51,1.03-0.99,2.01-1.43,2.95c-0.44,0.94-0.93,1.92-1.44,2.95c0.03,0.15-0.1,0.41-0.39,0.77
		c-0.68-0.98-1.19-1.92-1.5-2.81c-0.32-0.89-0.64-1.77-0.96-2.66c-0.65-2.87-1.01-6.1-1.1-9.69c0.15-1.12,0.18-2.22,0.08-3.31
		c-0.1-1.08-0.05-2.2,0.08-3.31c0.15-1.25,0.24-2.59,0.35-3.94c0.11-1.35,0.22-2.66,0.34-3.94c0.34-1.94,0.64-3.88,0.9-5.8
		c0.26-1.92,0.56-3.78,0.92-5.57c0.25-1.46,0.5-2.87,0.76-4.25c0.26-1.38,0.6-2.73,1.03-4.07c0.27-1.3,0.46-2.51,0.6-3.64
		c0.13-1.12,0.01-2.27-0.37-3.47c-0.32-1.83-1.15-3.25-2.48-4.27c-1.52-1.15-3.21-1.95-5.08-2.41c-1.88-0.46-3.75-0.93-5.62-1.4
		c-0.84-0.17-1.72-0.3-2.63-0.39c-0.91-0.08-1.79-0.22-2.62-0.39c-0.84-0.18-1.57-0.42-2.18-0.71c-0.61-0.29-1.26-0.54-1.94-0.75
		c-0.16,0.03-0.25-0.04-0.27-0.19c-0.66-0.46-0.98-0.69-1.64-1.15c0.42-3.51,0.27-7.24-0.43-11.2c-0.71-3.96-2.2-7.09-4.45-9.4
		c-2.04-1.87-4.28-2.63-6.75-2.26c-0.31,0.05-0.69,0.14-1.14,0.29c-0.45,0.15-0.83,0.24-1.14,0.28c-3.73,1.49-5.56,4.16-5.49,8.05
		c0.03,2.5,0.89,5.23,2.59,8.18c1.7,2.96,4.05,5.95,7.08,8.94c0.4,0.57,0.7,0.92,0.88,1.04c0.01,0.09,0.02,0.14,0.03,0.23
		c0.45,0.4,0.67,0.6,1.12,1.01c-0.5,3.2-1.02,6.25-1.58,9.14c-1.25,6.43-3.92,11.97-5.35,18.29c-1.99,8.77-5.24,17.85-11.06,24.79
		c-0.96,1.13-1.87,2.3-2.73,3.49c-0.74,0.87-1.56,1.79-2.46,2.75c-0.9,0.97-1.72,1.88-2.47,2.75c-0.46,0.37-0.89,0.73-1.27,1.08
		c-0.38,0.36-0.81,0.72-1.27,1.08c-0.79,0.56-1.58,1.08-2.37,1.56c-0.8,0.48-1.68,0.93-2.65,1.35c-1.11,0.75-2.07,0.54-2.87-0.62
		c-0.37-0.27-0.62-0.63-0.76-1.08c-0.14-0.45-0.3-0.82-0.5-1.11c-0.27-0.9-0.41-1.78-0.41-2.64c-0.01-0.85-0.06-1.74-0.16-2.66
		c-0.08-0.77-0.12-1.46-0.1-2.09c0.02-0.62-0.01-1.24-0.07-1.86c0.08-0.79,0.08-1.56,0-2.33c-0.08-0.77-0.08-1.54,0-2.33
		c-0.07-0.61-0.09-1.19-0.06-1.74c0.02-0.54,0.08-1.21,0.16-2c0.52-3.36,0.88-4.36,4.11-4.65c3.03-0.27,4.98-1.43,7.51-3.3
		c4.92-3.64,9.02-8.38,11.88-13.79c3.7-7,5.11-17.14-2.36-22.46c-4.08-2.91-9.55-3.44-14.38-2.12c-4.83,1.32-9.07,4.32-12.56,7.91
		c-6.59,6.76-11.19,15.34-13.49,24.52c-0.24,0.95-0.44,1.94-0.59,2.97c-0.15,1.03-0.35,2.01-0.59,2.96
		c-0.03,0.2-0.05,0.39-0.08,0.59c-0.24,0.57-0.48,1.14-0.7,1.69c-0.54,1.37-1.16,2.78-1.86,4.24c-1.13,2.28-2.21,4.62-3.26,7.03
		c-1.05,2.42-2.12,4.89-3.29,7.26c-1.11,2.25-2.29,4.46-3.39,6.55c-1.1,2.1-2.25,4.29-3.43,6.54c-0.15,0.32-0.3,0.6-0.45,0.85
		c-0.15,0.24-0.38,0.53-0.7,0.87c-0.11-0.09-0.16-0.13-0.27-0.21c-0.01-0.15-0.21-0.53-0.59-1.12c-0.64-1.82-1.03-3.72-1.18-5.73
		c-0.36-2.61-0.39-5.47-0.12-8.6c0.24-1.26,0.41-2.39,0.51-3.41c0.09-1.01,0.26-2.15,0.5-3.41c0.26-0.95,0.44-1.93,0.53-2.95
		c0.09-1.01,0.26-2,0.52-2.95c0.62-3.67,0.92-5.51,1.53-9.19c0.83-4.53,1.24-6.8,2.05-11.33c0.83-4.25,1.24-6.38,2.05-10.64
		c0.19-1.57,0.1-2.72-0.29-3.47c-0.05-0.61-0.26-1.22-0.63-1.81c-0.82-2.11-2.43-3.33-4.86-3.68c-2.43-0.35-4.39,0.14-5.88,1.49
		c-2.56,2.2-4.4,4.65-5.5,7.36c-1.43,2.73-2.54,5.48-3.33,8.24c-0.8,2.76-1.52,5.56-2.16,8.38c-0.27,0.95-0.46,1.89-0.57,2.82
		c-0.76,6.79-3.17,13.63-6.3,19.64c-1.66,3.19-3.25,6.33-4.77,9.42c-1.52,3.1-3.14,6.23-4.86,9.4c-0.64,0.96-1.23,1.87-1.78,2.75
		c-0.56,0.88-1.16,1.79-1.79,2.75c0.01,0.16-0.15,0.4-0.48,0.72c-0.55-1.06-0.93-2.05-1.14-2.97c-0.21-0.92-0.42-1.84-0.62-2.76
		c-0.29-2.93-0.24-6.18,0.12-9.75c0.29-1.09,0.45-2.19,0.49-3.27c0.04-1.08,0.23-2.19,0.49-3.27c0.3-1.22,0.56-2.54,0.84-3.87
		c0.28-1.32,0.55-2.61,0.83-3.86c0.58-1.88,1.12-3.77,1.61-5.64c0.49-1.87,1.03-3.68,1.6-5.41c0.43-1.41,0.85-2.79,1.28-4.12
		c0.43-1.33,0.93-2.63,1.52-3.9c0.43-1.26,0.77-2.44,1.04-3.53c0.27-1.09,0.29-2.26,0.07-3.49c-0.09-1.85-0.74-3.36-1.92-4.55
		c-1.36-1.33-2.93-2.33-4.72-3.03c-1.8-0.69-3.59-1.39-5.38-2.09c-0.81-0.28-1.67-0.52-2.55-0.72c-0.89-0.2-1.74-0.44-2.55-0.72
		c-0.81-0.28-1.5-0.61-2.07-0.97c-0.57-0.37-1.18-0.69-1.83-0.98c-0.16,0.01-0.24-0.07-0.25-0.22c-0.59-0.54-0.89-0.81-1.48-1.35
		c0.85-3.43,1.17-7.15,0.96-11.17c-0.21-4.01-1.29-7.31-3.24-9.88c-1.78-2.11-3.91-3.14-6.4-3.08c-0.31,0.01-0.7,0.06-1.16,0.14
		c-0.47,0.09-0.85,0.13-1.17,0.14c-3.88,1.01-6.02,3.43-6.44,7.3c-0.28,2.48,0.23,5.3,1.54,8.44c1.31,3.15,3.27,6.41,5.9,9.75
		c0.33,0.61,0.58,1,0.74,1.14c0,0.09,0,0.14,0.01,0.23c0.39,0.46,0.59,0.68,0.98,1.14c-0.89,3.12-1.79,6.07-2.7,8.87
		c-0.76,2.33-1.57,4.64-2.42,6.89c-3.51,9.3-8.1,18.6-13.1,27.17c-1.81,3.1-3.55,6.16-5.22,9.18c-1.67,3.02-3.44,6.07-5.3,9.16
		c-0.68,0.92-1.32,1.81-1.91,2.66c-0.6,0.85-1.24,1.73-1.92,2.66c0,0.16-0.17,0.39-0.51,0.69c-0.5-1.08-0.83-2.1-0.99-3.02
		c-0.16-0.93-0.33-1.86-0.48-2.79c-0.15-2.94,0.06-6.18,0.59-9.74c0.34-1.08,0.56-2.16,0.65-3.24c0.09-1.08,0.33-2.18,0.65-3.24
		c0.36-1.2,0.68-2.51,1.02-3.82c0.34-1.31,0.68-2.58,1.02-3.82c0.67-1.85,1.3-3.71,1.88-5.56c0.58-1.85,1.2-3.63,1.86-5.33
		c0.49-1.39,0.99-2.74,1.48-4.06c0.49-1.31,1.06-2.59,1.71-3.83c0.48-1.24,0.89-2.4,1.21-3.48c0.32-1.08,0.4-2.24,0.23-3.48
		c0-1.85-0.57-3.4-1.7-4.64c-1.29-1.39-2.81-2.47-4.57-3.25c-1.77-0.78-3.52-1.56-5.27-2.35c-0.8-0.32-1.64-0.6-2.51-0.84
		c-0.88-0.24-1.72-0.52-2.51-0.84c-0.79-0.32-1.47-0.68-2.02-1.07c-0.55-0.39-1.15-0.75-1.78-1.07c-0.16,0-0.24-0.08-0.24-0.24
		c-0.57-0.57-0.85-0.85-1.41-1.42c1.02-3.38,1.51-7.08,1.5-11.11c-0.01-4.02-0.94-7.36-2.76-10.03c-1.68-2.2-3.75-3.32-6.24-3.39
		c-0.31-0.01-0.7,0.02-1.17,0.09c-0.47,0.07-0.86,0.09-1.17,0.08c-3.92,0.82-6.18,3.14-6.78,6.98c-0.4,2.46-0.02,5.3,1.14,8.51
		c1.16,3.21,2.96,6.56,5.42,10.02c0.3,0.63,0.53,1.02,0.69,1.18c0,0.09,0,0.14-0.01,0.23c0.37,0.47,0.56,0.71,0.93,1.18
		c-1.04,3.07-2.08,5.98-3.12,8.73c-2.17,5.69-5.03,11.09-7.96,16.42c-2.57,4.68-4.71,10.27-8.56,13.98
		c-0.69,0.67-1.47,1.37-2.33,2.1c-0.34,0.14-0.59,0.24-0.76,0.31c-0.17,0.07-0.43,0.25-0.77,0.55c0.19-0.46,0.29-0.91,0.31-1.38
		c0.18-0.46,0.3-1.15,0.34-2.07c0.21-1.07,0.38-2.11,0.51-3.11c0.13-1,0.22-2.04,0.26-3.12c0.1-2.22,0.15-3.34,0.25-5.56
		c-0.1-1.55-0.19-3.03-0.29-4.43c-0.1-1.39-0.28-2.87-0.53-4.43c-0.37-2.65-1.07-5.08-2.09-7.3c-1.16-2.84-2.82-5.16-4.97-6.98
		c-2.16-1.82-4.51-2.8-7.06-2.95c-2.72-0.16-5.1,0.69-7.14,2.34c-2.13,1.72-3.83,4.16-4.86,7.34c-0.39,0.9-0.6,1.59-0.63,2.05
		c-0.32-0.02-0.56-0.12-0.71-0.28c-0.32-0.18-0.63-0.31-0.95-0.42c-0.32-0.1-0.63-0.24-0.94-0.42c-2.55-0.65-4.86-0.6-6.82-0.05
		c-2.25,0.64-3.95,1.54-4.87,2.86c-0.54,0.58-0.99,1.12-1.36,1.63c-0.37,0.51-0.75,1.14-1.14,1.88c-0.39,0.74-0.78,1.53-1.18,2.34
		c-0.4,0.82-0.8,1.68-1.21,2.57c-1.18,2.23-2.14,4.63-2.86,7.2c-0.23,0.76-0.42,1.47-0.56,2.16c-0.14,0.68-0.33,1.41-0.57,2.16
		c-0.74,2.73-1.23,5.33-1.45,7.79c-0.07,0.77-0.15,1.62-0.23,2.54c-0.08,0.92,0.01,1.86,0.02,2.56c0.04,2.77-0.06,6.28,0.66,9.61
		c0.29,2.51,1.01,4.9,2.18,7.17c1.13,2.74,2.72,5.12,4.79,7.15c2.55,2.38,5.78,3.87,9.69,4.47c1.02,0.23,2.08,0.3,3.21,0.23
		c1.12-0.08,2.24-0.21,3.25-0.47c0.85-0.22,1.74-0.47,2.62-0.64c0.87-0.18,1.74-0.47,2.63-0.88c3.51-1.33,6.56-3.4,9.07-6.2
		c2.36-2.63,4.27-5.19,5.75-7.59c0.93-1.66,1.77-3.24,2.51-4.75c0.74-1.51,1.41-3.1,1.99-4.78c0.2-0.76,0.73-1.28,1.58-1.55
		c0.33,0.02,0.58-0.01,0.76-0.08c0.17-0.07,0.42-0.1,0.76-0.08c1.01-0.26,1.95-0.69,2.81-1.27c0.86-0.58,1.72-1.24,2.58-1.98
		c1.13-0.97,2.19-2.06,3.2-3.25c0.06,0.05,0.11,0.07,0.17,0.13c0.15-0.29,0.3-0.57,0.45-0.86c4.51-5.65,6.63-11.38,9.24-18.14
		c2.29-5.9,5.93-11.61,9.02-17.12c1.59,0.81,3.14,1.69,4.66,2.64c1.51,0.95,2.99,1.83,4.44,2.62c-0.34,0.77-0.75,1.5-1.24,2.19
		c-0.5,0.69-0.91,1.42-1.25,2.18c-0.5,1.08-1.05,2.15-1.64,3.22c-0.59,1.07-1.14,2.22-1.65,3.45c-0.68,1.38-1.28,2.76-1.79,4.14
		c-0.52,1.38-1.04,2.76-1.56,4.14c-0.87,2.15-1.58,4.38-2.13,6.68c-0.55,2.31-1.02,4.62-1.4,6.93c-0.57,3.08-0.9,6.09-0.97,9.02
		c-0.5,6.8,0.26,13.16,2.35,19.08c0.96,2.96,2.61,5.39,4.98,7.29c3.38,2.69,7.17,3.13,11.3,1.3c1.89-0.76,3.49-1.71,4.78-2.87
		c1.29-1.15,2.45-2.43,3.47-3.82c0.85-1.24,1.54-2.43,2.05-3.59c0.51-1.16,1.1-2.36,1.78-3.6c0.67-1.55,1.35-3.06,2.02-4.53
		c0.67-1.47,1.33-3.06,2-4.76c0.83-2.01,1.7-3.99,2.6-5.93c7.05-15.15,12.75-30.95,20.23-45.93c1.62,0.73,3.22,1.54,4.78,2.41
		c1.56,0.88,3.08,1.68,4.56,2.4c-0.3,0.79-0.68,1.53-1.14,2.24c-0.46,0.71-0.84,1.46-1.14,2.24c-0.45,1.1-0.94,2.2-1.48,3.3
		c-0.54,1.1-1.03,2.28-1.48,3.53c-0.61,1.41-1.14,2.82-1.59,4.22c-0.45,1.41-0.9,2.81-1.36,4.21c-0.76,2.19-1.36,4.45-1.8,6.78
		c-0.44,2.33-0.79,4.66-1.07,6.99c-0.42,3.11-0.6,6.12-0.53,9.06c-0.17,6.81,0.89,13.13,3.26,18.94c1.1,2.91,2.87,5.26,5.33,7.04
		c3.51,2.52,7.32,2.78,11.36,0.76c1.86-0.85,3.4-1.88,4.63-3.1c1.23-1.22,2.33-2.54,3.28-3.98c0.79-1.28,1.42-2.51,1.87-3.69
		c0.45-1.18,0.99-2.41,1.6-3.68c0.6-1.58,1.2-3.12,1.8-4.62c0.6-1.5,1.19-3.12,1.77-4.86c0.73-2.05,1.5-4.07,2.31-6.05
		c0.04-0.09,0.07-0.18,0.11-0.27c0.06,1.08,0.12,2.14,0.18,3.16c0.09,1.55,0.26,3.17,0.53,4.85c0.25,1.53,0.59,2.99,1.01,4.36
		c0.42,1.37,0.84,2.82,1.27,4.34c0.6,1.51,1.28,2.91,2.04,4.18c0.76,1.27,1.86,2.48,3.3,3.63c3.62,3.18,7.8,3.6,12.44,1.25
		c3.48-1.8,6.11-4.34,7.9-7.58c0.6-0.98,1.08-1.99,1.42-3.02c0.34-1.03,0.72-2.11,1.14-3.23c0.56-1.44,1.07-2.92,1.54-4.43
		c0.46-1.51,1.05-3.08,1.75-4.69c0.67-2.07,1.33-4.07,2-6c0.54-1.56,1.08-3.19,1.61-4.85c0.21,1.08,0.45,2.17,0.77,3.24
		c0.31,1.53,0.89,3.26,1.74,5.2c1.07,2.39,2.35,4.36,3.85,5.93c1.91,2.31,3.94,3.9,6.08,4.77c2.31,1.02,4.67,1.47,7.06,1.37
		c1.69-0.18,3.44-0.6,5.25-1.27c0.49-0.21,0.94-0.37,1.36-0.5c0.41-0.12,0.86-0.29,1.35-0.5c0.98-0.42,1.95-0.88,2.92-1.38
		c0.97-0.5,1.93-1.04,2.88-1.62c1.44-0.79,2.85-1.89,4.21-3.31c2.01-1.65,3.82-3.51,5.43-5.59c11.45-15.32,14.53-36.63,20.81-54.44
		c1.71,0.52,3.39,1.12,5.06,1.8c1.66,0.68,3.27,1.28,4.84,1.81c-0.2,0.82-0.48,1.6-0.85,2.37c-0.37,0.76-0.66,1.55-0.85,2.37
		c-0.31,1.15-0.66,2.3-1.06,3.46c-0.4,1.16-0.74,2.39-1.03,3.68c-0.43,1.48-0.78,2.94-1.06,4.39c-0.27,1.45-0.55,2.9-0.83,4.35
		c-0.49,2.27-0.8,4.58-0.95,6.95c-0.14,2.37-0.21,4.72-0.19,7.07c-0.03,3.13,0.17,6.15,0.6,9.06c0.68,6.78,2.53,12.91,5.61,18.39
		c1.46,2.75,3.51,4.86,6.18,6.32c3.8,2.06,7.63,1.84,11.4-0.67c1.74-1.08,3.15-2.29,4.22-3.65c1.07-1.36,2-2.81,2.77-4.36
		c0.63-1.37,1.1-2.66,1.4-3.9c0.3-1.23,0.68-2.51,1.14-3.85c0.4-1.64,0.8-3.24,1.21-4.81c0.41-1.56,0.79-3.24,1.15-5.04
		c0.47-2.13,0.99-4.22,1.55-6.29c0.56-2.07,1.08-4.09,1.56-6.07c0.13-1.12,0.36-2.19,0.68-3.19c0.32-1,0.56-1.99,0.71-2.97
		c0.42-2.28,0.86-4.41,1.32-6.39C509.83,476.16,509.66,475.72,509.09,475.36z M422.4,485.7c0.93-4.37,0.96-8.55,2.52-12.78
		c1.55-4.24,3.69-8.29,6.39-11.91c0.88-1.18,1.86-2.34,3.14-3.08c4.08-2.34,7.41,0.62,7.3,4.79c-0.14,4.82-2.44,9.92-5.34,13.69
		C432.91,480.92,427.91,484.24,422.4,485.7z M236.33,510.22c-0.4,1.22-0.93,2.43-1.58,3.63c-0.66,1.21-1.34,2.46-2.09,3.6
		c-0.68,1.03-1.47,2.05-2.2,3.01c-0.73,0.96-1.55,1.88-2.45,2.76c-2.17,2.19-4.56,3.74-7.18,4.65c-0.69,0.11-1.33,0.22-1.94,0.33
		c-0.61,0.11-1.25,0.14-1.92,0.1c-1.7-0.12-2.84-0.74-3.44-1.87c-0.6-1.13-0.97-2.52-1.23-4.05c-0.21-1.23-0.36-2.59-0.33-3.98
		c0.02-1.39,0.08-2.78,0.19-4.17c0.25-1.07,0.41-2.06,0.48-2.99c0.07-0.92,0.23-1.92,0.47-2.99c0.25-1.07,0.45-2.13,0.62-3.21
		c0.16-1.07,0.45-2.14,0.86-3.19c0.8-2.73,1.2-4.1,1.99-6.83c0.42-1.21,0.83-2.34,1.24-3.4c0.4-1.05,0.81-2.19,1.23-3.4
		c0.22-0.76,0.71-1.89,1.47-3.38c0.01-0.15,0.1-0.3,0.28-0.45c-0.01,0.16,0.06,0.32,0.21,0.48c0.24,1.26,0.45,2.4,0.63,3.41
		c0.18,1.02,0.47,2.09,0.89,3.2c1.48,4.91,3.78,9.09,6.9,12.53c0.94,0.99,1.96,1.94,3.08,2.86c1.11,0.92,2.32,1.72,3.62,2.41
		C236.45,509.61,236.51,509.92,236.33,510.22z M240.66,489.78c-0.1,2.01-0.3,4.09-0.57,6.24c-0.03,0.62-0.1,1.16-0.21,1.61
		c-0.11,0.46-0.18,1-0.21,1.62c-0.1-0.01-0.15-0.01-0.25-0.01c-0.64-0.5-1.42-1.39-2.34-2.68c-2.15-3.06-3.74-6.79-4.79-11.19
		c-0.28-0.95-0.54-1.93-0.81-2.95c-0.27-1.02-0.42-2.12-0.54-3.17c-0.09-0.76-0.19-1.56-0.22-2.34c-0.03-0.77,0.13-1.54,0.51-2.29
		c0.05-0.77,0.33-1.37,0.84-1.81c0.2-0.61,0.86-0.88,1.99-0.81c0.8,0.05,1.44,0.28,1.9,0.69c0.46,0.41,0.92,0.86,1.38,1.36
		c0.61,0.65,1.1,1.38,1.46,2.17c0.36,0.79,0.68,1.59,0.97,2.37c0.28,0.79,0.44,1.61,0.48,2.46c0.04,0.85,0.11,1.67,0.24,2.45
		C240.7,485.68,240.76,487.77,240.66,489.78z M273.02,452.94c-0.77-1.25-1.56-2.86-2.37-4.81c-0.82-1.95-1.21-3.24-1.2-3.86
		c-0.27-1.55-0.09-2.55,0.55-3c0.32-0.3,0.56-0.45,0.72-0.44c0.62,0.02,1.17,0.34,1.62,0.97c0.31,0.32,0.71,1.33,1.22,3.05
		C274.08,446.55,273.9,449.25,273.02,452.94z M325.31,452.91c-0.82-1.22-1.69-2.78-2.6-4.69c-0.91-1.91-1.37-3.18-1.38-3.8
		c-0.35-1.54-0.21-2.55,0.41-3.03c0.31-0.31,0.54-0.47,0.69-0.48c0.62-0.01,1.18,0.28,1.67,0.89c0.32,0.31,0.77,1.3,1.37,2.98
		C326.06,446.48,326.01,449.18,325.31,452.91z M460.33,441.1c-0.97-1.1-2.03-2.55-3.17-4.33c-1.15-1.78-1.76-2.98-1.85-3.6
		c-0.54-1.48-0.53-2.5,0.03-3.05c0.27-0.35,0.48-0.54,0.63-0.56c0.62-0.09,1.21,0.13,1.77,0.67c0.36,0.26,0.93,1.19,1.73,2.79
		C460.27,434.62,460.56,437.31,460.33,441.1z M482,167.89l8.17,30.61l-16.88,5.55l-8.2-33.18L482,167.89z M124.67,170.86l-8.2,33.18
		l-16.88-5.55l8.17-30.61L124.67,170.86z"/>
</g>
</svg>
